<?xml version="1.0" encoding="utf-8" standalone="no"?>
<!DOCTYPE svg PUBLIC "-//W3C//DTD SVG 1.1//EN"
  "http://www.w3.org/Graphics/SVG/1.1/DTD/svg11.dtd">
<svg height="250.056699pt" version="1.1" viewBox="0 0 386.845313 250.056699" width="386.845313pt" xmlns="http://www.w3.org/2000/svg" xmlns:xlink="http://www.w3.org/1999/xlink">
 <metadata>
  <rdf:RDF xmlns:cc="http://creativecommons.org/ns#" xmlns:dc="http://purl.org/dc/elements/1.1/" xmlns:rdf="http://www.w3.org/1999/02/22-rdf-syntax-ns#">
   <cc:Work>
    <dc:type rdf:resource="http://purl.org/dc/dcmitype/StillImage"/>
    <dc:date>2021-04-09T11:24:57.966304</dc:date>
    <dc:format>image/svg+xml</dc:format>
    <dc:creator>
     <cc:Agent>
      <dc:title>Matplotlib v3.4.1, https://matplotlib.org/</dc:title>
     </cc:Agent>
    </dc:creator>
   </cc:Work>
  </rdf:RDF>
 </metadata>
 <defs>
  <style type="text/css">*{stroke-linecap:butt;stroke-linejoin:round;}</style>
 </defs>
 <g id="figure_1">
  <g id="patch_1">
   <path d="M 0 250.056699 
L 386.845313 250.056699 
L 386.845313 0 
L 0 0 
z
" style="fill:none;"/>
  </g>
  <g id="axes_1">
   <g id="patch_2">
    <path d="M 44.845313 226.178574 
L 379.645313 226.178574 
L 379.645313 8.738574 
L 44.845313 8.738574 
z
" style="fill:#ffffff;"/>
   </g>
   <g id="PolyCollection_1">
    <defs>
     <path d="M 60.063494 -158.577296 
L 60.063494 -73.437591 
L 62.484932 -73.130305 
L 66.82583 -72.40996 
L 67.205083 -72.344071 
L 67.673533 -72.262575 
L 67.68856 -72.259955 
L 70.314137 -71.833505 
L 71.183268 -71.685221 
L 71.533797 -71.626646 
L 72.446933 -71.480903 
L 72.448833 -71.480593 
L 74.12448 -71.205682 
L 75.014676 -71.05887 
L 77.250703 -70.70338 
L 78.205146 -70.572619 
L 78.757698 -70.496593 
L 81.366191 -70.134469 
L 84.115362 -69.746688 
L 84.339575 -69.714761 
L 85.081699 -69.608797 
L 85.475363 -69.552368 
L 86.843239 -69.375225 
L 87.262408 -69.321754 
L 87.453505 -69.297321 
L 87.561746 -69.283461 
L 87.697391 -69.266081 
L 91.555611 -68.698063 
L 92.253911 -68.589487 
L 92.510211 -68.54949 
L 93.406686 -68.385026 
L 94.639656 -68.151484 
L 95.018292 -68.079543 
L 95.744953 -67.940938 
L 95.914235 -67.908665 
L 96.099282 -67.873368 
L 98.595275 -67.392348 
L 99.867918 -67.143425 
L 100.283748 -67.068867 
L 101.102001 -66.929526 
L 101.958294 -66.766469 
L 102.189209 -66.714721 
L 103.712345 -66.370935 
L 105.132938 -66.048403 
L 107.307961 -65.582159 
L 110.74066 -64.755888 
L 111.776465 -64.509627 
L 113.508041 -64.091323 
L 113.830331 -64.005535 
L 114.645401 -63.787168 
L 114.862209 -63.728757 
L 116.236414 -63.355246 
L 119.252594 -62.523894 
L 120.107247 -62.288609 
L 120.383021 -62.203014 
L 120.630319 -62.125996 
L 120.902717 -62.040565 
L 120.938798 -62.029201 
L 121.205606 -61.945863 
L 121.576099 -61.832142 
L 121.706971 -61.792299 
L 122.847127 -61.444283 
L 124.257666 -61.055283 
L 127.166839 -60.174009 
L 132.526252 -58.444162 
L 134.456487 -57.76117 
L 134.617451 -57.702932 
L 136.219135 -57.159272 
L 138.146448 -56.519565 
L 140.438156 -55.830688 
L 140.743041 -55.754021 
L 141.577132 -55.559474 
L 141.840619 -55.496808 
L 146.251802 -55.05849 
L 148.690826 -55.0069 
L 148.746398 -55.006579 
L 149.276639 -55.027904 
L 149.639002 -55.066086 
L 149.802633 -55.08307 
L 152.349462 -55.56447 
L 153.374335 -55.935433 
L 153.60038 -56.03371 
L 154.100094 -56.252571 
L 154.961046 -56.698229 
L 155.013587 -56.729633 
L 156.661533 -57.780764 
L 157.087617 -58.084769 
L 157.237019 -58.191182 
L 158.862932 -59.575 
L 159.658674 -60.456574 
L 159.985919 -60.823952 
L 162.076936 -63.646025 
L 166.779011 -71.500923 
L 167.225494 -72.339488 
L 167.36339 -72.598464 
L 168.283888 -74.401757 
L 168.9005 -75.722562 
L 168.925164 -75.776628 
L 168.933894 -75.795767 
L 169.034185 -76.019708 
L 170.599553 -79.918678 
L 171.865209 -83.373858 
L 171.988822 -83.736348 
L 172.903113 -86.431738 
L 173.674935 -88.795756 
L 174.867341 -92.546018 
L 177.375476 -100.964263 
L 177.651777 -101.914004 
L 178.953095 -106.449264 
L 179.922233 -109.897723 
L 180.399188 -111.60409 
L 180.652638 -112.500719 
L 182.596159 -119.43522 
L 182.990554 -120.852207 
L 184.31033 -125.558972 
L 184.587247 -126.544119 
L 184.934528 -127.77337 
L 188.712475 -140.623215 
L 190.543798 -146.30266 
L 190.8946 -147.366586 
L 192.846196 -153.086735 
L 194.097932 -156.610527 
L 195.166617 -159.519028 
L 195.542337 -160.515344 
L 195.631176 -160.750375 
L 197.007904 -164.138679 
L 198.194811 -166.877189 
L 199.604606 -169.863081 
L 200.148549 -170.950677 
L 201.141861 -172.820121 
L 201.632809 -173.721224 
L 203.947966 -177.923043 
L 204.16913 -178.317931 
L 206.302833 -181.788285 
L 208.203649 -184.338457 
L 209.301608 -185.182909 
L 211.846694 -186.480315 
L 212.387352 -186.719677 
L 212.87458 -186.928034 
L 213.969291 -187.362053 
L 214.484413 -187.510808 
L 214.832946 -187.6043 
L 216.443033 -187.8715 
L 216.944889 -187.817741 
L 220.204828 -186.649005 
L 220.697173 -186.387968 
L 221.050389 -186.104157 
L 223.405619 -183.726176 
L 224.321435 -182.575347 
L 224.404285 -182.470275 
L 224.65837 -182.148289 
L 225.167576 -181.494797 
L 229.141496 -174.902803 
L 229.890759 -173.227401 
L 230.128583 -172.67605 
L 230.725558 -171.249051 
L 231.119536 -170.304153 
L 231.476454 -169.433609 
L 233.05723 -165.403013 
L 233.122766 -165.234866 
L 234.917247 -160.456456 
L 235.546563 -158.666973 
L 235.712445 -158.192869 
L 236.455464 -156.008177 
L 236.723143 -155.201618 
L 240.545755 -143.377358 
L 240.637262 -143.082402 
L 240.851783 -142.386299 
L 240.928354 -142.137333 
L 241.36618 -140.708764 
L 241.614549 -139.894613 
L 242.066767 -138.397804 
L 242.337513 -137.491322 
L 242.583704 -136.664282 
L 243.181713 -134.644486 
L 243.683043 -132.940573 
L 243.99653 -131.877596 
L 244.603559 -129.885776 
L 245.21008 -127.997329 
L 245.531444 -126.998138 
L 245.559357 -126.911349 
L 245.810485 -126.132419 
L 246.095188 -125.249544 
L 246.899859 -122.825506 
L 248.060051 -119.318163 
L 250.015096 -113.390087 
L 250.428367 -112.176311 
L 250.664866 -111.519542 
L 251.199154 -110.126525 
L 253.582551 -104.124304 
L 253.889033 -103.40878 
L 254.972418 -100.94425 
L 255.854586 -99.080237 
L 256.042773 -98.725704 
L 257.199934 -96.560791 
L 258.200633 -94.973685 
L 258.693214 -94.285682 
L 258.826174 -94.100475 
L 259.669793 -93.095546 
L 266.135895 -88.811403 
L 267.972009 -88.664831 
L 268.223445 -88.724625 
L 268.228509 -88.725992 
L 268.793414 -88.903905 
L 269.194688 -89.047875 
L 271.010203 -89.715226 
L 271.834911 -90.009767 
L 271.84297 -90.013197 
L 271.92337 -90.04803 
L 273.427757 -90.705326 
L 273.836926 -90.8869 
L 274.6451 -91.35037 
L 274.672614 -91.368563 
L 274.679021 -91.372855 
L 279.181892 -94.53873 
L 279.246267 -94.588281 
L 280.946591 -95.990897 
L 281.280314 -96.269683 
L 282.303463 -97.110043 
L 282.840328 -97.544463 
L 284.06778 -98.554944 
L 284.515352 -98.940265 
L 284.673194 -99.076802 
L 285.137935 -99.476819 
L 285.620498 -99.887173 
L 287.091546 -101.058243 
L 291.595906 -104.27602 
L 291.726524 -104.365408 
L 292.230994 -104.713515 
L 293.08572 -105.299068 
L 293.285994 -105.43533 
L 294.065438 -105.966611 
L 297.493146 -108.35243 
L 299.517538 -109.703745 
L 299.782768 -109.878282 
L 299.977325 -110.00603 
L 301.262345 -110.810072 
L 303.118478 -111.926296 
L 305.834056 -113.715292 
L 306.786025 -114.358074 
L 306.848367 -114.400077 
L 308.762068 -115.683455 
L 308.953395 -115.81119 
L 311.66135 -117.591295 
L 311.676849 -117.600983 
L 314.193478 -119.166565 
L 314.716241 -119.482406 
L 315.937257 -120.162836 
L 316.167458 -120.289809 
L 316.313969 -120.370583 
L 316.973685 -120.74813 
L 317.200511 -120.879348 
L 317.811805 -121.217241 
L 318.29343 -121.483011 
L 318.8794 -121.805879 
L 319.388225 -122.085804 
L 320.544025 -122.720284 
L 320.883484 -122.906272 
L 323.657859 -124.446237 
L 324.546215 -124.956791 
L 325.66141 -125.59554 
L 326.849442 -126.26149 
L 328.534043 -127.214843 
L 328.657299 -127.284494 
L 332.067396 -129.167854 
L 332.093724 -129.182275 
L 334.71595 -130.615559 
L 335.032141 -130.788063 
L 335.504039 -131.045384 
L 335.886862 -131.254029 
L 336.005508 -131.318675 
L 338.582445 -132.710207 
L 338.843863 -132.849064 
L 339.040913 -132.953713 
L 341.633653 -134.325886 
L 341.66741 -134.344502 
L 342.70316 -134.915298 
L 342.829913 -134.985096 
L 343.379004 -135.288466 
L 343.518146 -135.366177 
L 345.34195 -136.383801 
L 345.743284 -136.607527 
L 345.822002 -136.651407 
L 348.871733 -138.349252 
L 348.991977 -138.416126 
L 349.014433 -138.428592 
L 349.187381 -138.52477 
L 349.751814 -138.838519 
L 350.694763 -139.366072 
L 352.43571 -140.347703 
L 352.62475 -140.45267 
L 353.834392 -141.120876 
L 356.444276 -142.526847 
L 359.075963 -143.88724 
L 359.129091 -143.914679 
L 360.621313 -144.685189 
L 360.673703 -144.712229 
L 361.027076 -144.894596 
L 361.670227 -145.227888 
L 361.905511 -145.353038 
L 364.427131 -146.694991 
L 364.427131 -223.870771 
L 364.427131 -223.870771 
L 361.905511 -220.63908 
L 361.670227 -220.337722 
L 361.027076 -219.520714 
L 360.673703 -219.073198 
L 360.621313 -219.006858 
L 359.129091 -217.117466 
L 359.075963 -217.050197 
L 356.444276 -213.719583 
L 353.834392 -210.354243 
L 352.62475 -208.779699 
L 352.43571 -208.53318 
L 350.694763 -206.249632 
L 349.751814 -205.017088 
L 349.187381 -204.28194 
L 349.014433 -204.056697 
L 348.991977 -204.027452 
L 348.871733 -203.870866 
L 345.822002 -199.9012 
L 345.743284 -199.798778 
L 345.34195 -199.276691 
L 343.518146 -196.905029 
L 343.379004 -196.724157 
L 342.829913 -196.013733 
L 342.70316 -195.849995 
L 341.66741 -194.512334 
L 341.633653 -194.468761 
L 339.040913 -191.16929 
L 338.843863 -190.917936 
L 338.582445 -190.584507 
L 336.005508 -187.279559 
L 335.886862 -187.127035 
L 335.504039 -186.634946 
L 335.032141 -186.028481 
L 334.71595 -185.622228 
L 332.093724 -182.255716 
L 332.067396 -182.221937 
L 328.657299 -177.834458 
L 328.534043 -177.674227 
L 326.849442 -175.485459 
L 325.66141 -173.94847 
L 324.546215 -172.489361 
L 323.657859 -171.326664 
L 320.883484 -167.756048 
L 320.544025 -167.322448 
L 319.388225 -165.847297 
L 318.8794 -165.198522 
L 318.29343 -164.451853 
L 317.811805 -163.838538 
L 317.200511 -163.059163 
L 316.973685 -162.764335 
L 316.313969 -161.910827 
L 316.167458 -161.724139 
L 315.937257 -161.430867 
L 314.716241 -159.870089 
L 314.193478 -159.178141 
L 311.676849 -155.819215 
L 311.66135 -155.79857 
L 308.953395 -152.111093 
L 308.762068 -151.849781 
L 306.848367 -149.241872 
L 306.786025 -149.157102 
L 305.834056 -147.864178 
L 303.118478 -144.245828 
L 301.262345 -141.896329 
L 299.977325 -140.246086 
L 299.782768 -139.992311 
L 299.517538 -139.646717 
L 297.493146 -137.006733 
L 294.065438 -132.518808 
L 293.285994 -131.534857 
L 293.08572 -131.284344 
L 292.230994 -130.219211 
L 291.726524 -129.593414 
L 291.595906 -129.431213 
L 287.091546 -123.957903 
L 285.620498 -122.163525 
L 285.137935 -121.564208 
L 284.673194 -120.989996 
L 284.515352 -120.795651 
L 284.06778 -120.249465 
L 282.840328 -118.822022 
L 282.303463 -118.22512 
L 281.280314 -117.097697 
L 280.946591 -116.732451 
L 279.246267 -114.943835 
L 279.181892 -114.881313 
L 274.679021 -111.134593 
L 274.672614 -111.130127 
L 274.6451 -111.110963 
L 273.836926 -110.631541 
L 273.427757 -110.430271 
L 271.92337 -109.728612 
L 271.84297 -109.695693 
L 271.834911 -109.692505 
L 271.010203 -109.384721 
L 269.194688 -108.714954 
L 268.793414 -108.579339 
L 268.228509 -108.419342 
L 268.223445 -108.418314 
L 267.972009 -108.384142 
L 266.135895 -108.509002 
L 259.669793 -111.978473 
L 258.826174 -112.797705 
L 258.693214 -112.950098 
L 258.200633 -113.518694 
L 257.199934 -114.765591 
L 256.042773 -116.504025 
L 255.854586 -116.78944 
L 254.972418 -118.259117 
L 253.889033 -120.2528 
L 253.582551 -120.830519 
L 251.199154 -125.696591 
L 250.664866 -126.84152 
L 250.428367 -127.370809 
L 250.015096 -128.356427 
L 248.060051 -133.365995 
L 246.899859 -136.404783 
L 246.095188 -138.540148 
L 245.810485 -139.331397 
L 245.559357 -140.032178 
L 245.531444 -140.110533 
L 245.21008 -141.018045 
L 244.603559 -142.749427 
L 243.99653 -144.610896 
L 243.683043 -145.619669 
L 243.181713 -147.255162 
L 242.583704 -149.221466 
L 242.337513 -150.035454 
L 242.066767 -150.933659 
L 241.614549 -152.431856 
L 241.36618 -153.254218 
L 240.928354 -154.710494 
L 240.851783 -154.966035 
L 240.637262 -155.683381 
L 240.545755 -155.98959 
L 236.723143 -168.9011 
L 236.455464 -169.823931 
L 235.712445 -172.366638 
L 235.546563 -172.922353 
L 234.917247 -175.038146 
L 233.122766 -180.868215 
L 233.05723 -181.076114 
L 231.476454 -186.113578 
L 231.119536 -187.245754 
L 230.725558 -188.45379 
L 230.128583 -190.288958 
L 229.890759 -191.013043 
L 229.141496 -193.229557 
L 225.167576 -202.455905 
L 224.65837 -203.423892 
L 224.404285 -203.892508 
L 224.321435 -204.043521 
L 223.405619 -205.719485 
L 221.050389 -209.419144 
L 220.697173 -209.864004 
L 220.204828 -210.37016 
L 216.944889 -212.54901 
L 216.443033 -212.719139 
L 214.832946 -212.559268 
L 214.484413 -212.466902 
L 213.969291 -212.31971 
L 212.87458 -211.866149 
L 212.387352 -211.646728 
L 211.846694 -211.398868 
L 209.301608 -210.004111 
L 208.203649 -208.979689 
L 206.302833 -205.929661 
L 204.16913 -201.79313 
L 203.947966 -201.323618 
L 201.632809 -196.286997 
L 201.141861 -195.21596 
L 200.148549 -192.976162 
L 199.604606 -191.697422 
L 198.194811 -188.184628 
L 197.007904 -185.059408 
L 195.631176 -181.211575 
L 195.542337 -180.951905 
L 195.166617 -179.855883 
L 194.097932 -176.687502 
L 192.846196 -172.939448 
L 190.8946 -167.044944 
L 190.543798 -165.977701 
L 188.712475 -160.398234 
L 184.934528 -148.491775 
L 184.587247 -147.391964 
L 184.31033 -146.51563 
L 182.990554 -142.37605 
L 182.596159 -141.145548 
L 180.652638 -135.21483 
L 180.399188 -134.458014 
L 179.922233 -133.021104 
L 178.953095 -130.138183 
L 177.651777 -126.364506 
L 177.375476 -125.576724 
L 174.867341 -118.684698 
L 173.674935 -115.668102 
L 172.903113 -113.77545 
L 171.988822 -111.632089 
L 171.865209 -111.351068 
L 170.599553 -108.610584 
L 169.034185 -105.515373 
L 168.933894 -105.33857 
L 168.925164 -105.323374 
L 168.9005 -105.280451 
L 168.283888 -104.225962 
L 167.36339 -102.78038 
L 167.225494 -102.571727 
L 166.779011 -101.896194 
L 162.076936 -95.454473 
L 159.985919 -93.120592 
L 159.658674 -92.818799 
L 158.862932 -92.107027 
L 157.237019 -90.966699 
L 157.087617 -90.886628 
L 156.661533 -90.658879 
L 155.013587 -89.881226 
L 154.961046 -89.85899 
L 154.100094 -89.528956 
L 153.60038 -89.392255 
L 153.374335 -89.333279 
L 152.349462 -89.118686 
L 149.802633 -89.102834 
L 149.639002 -89.118763 
L 149.276639 -89.154743 
L 148.746398 -89.236087 
L 148.690826 -89.247399 
L 146.251802 -89.851886 
L 141.840619 -91.488786 
L 141.577132 -91.633055 
L 140.743041 -92.093126 
L 140.438156 -92.267943 
L 138.146448 -93.750271 
L 136.219135 -95.117259 
L 134.617451 -96.306632 
L 134.456487 -96.43157 
L 132.526252 -97.941474 
L 127.166839 -102.194212 
L 124.257666 -104.569704 
L 122.847127 -105.710804 
L 121.706971 -106.679359 
L 121.576099 -106.791871 
L 121.205606 -107.112766 
L 120.938798 -107.345329 
L 120.902717 -107.376765 
L 120.630319 -107.613641 
L 120.383021 -107.828336 
L 120.107247 -108.068034 
L 119.252594 -108.786066 
L 116.236414 -111.338789 
L 114.862209 -112.514753 
L 114.645401 -112.700796 
L 113.830331 -113.401457 
L 113.508041 -113.679007 
L 111.776465 -115.134636 
L 110.74066 -116.008716 
L 107.307961 -118.949262 
L 105.132938 -120.780603 
L 103.712345 -122.003363 
L 102.189209 -123.321318 
L 101.958294 -123.521501 
L 101.102001 -124.233209 
L 100.283748 -124.899025 
L 99.867918 -125.241914 
L 98.595275 -126.315442 
L 96.099282 -128.42812 
L 95.914235 -128.585112 
L 95.744953 -128.728797 
L 95.018292 -129.346564 
L 94.639656 -129.66874 
L 93.406686 -130.719872 
L 92.510211 -131.479842 
L 92.253911 -131.690348 
L 91.555611 -132.264287 
L 87.697391 -135.41848 
L 87.561746 -135.526571 
L 87.453505 -135.612837 
L 87.262408 -135.765168 
L 86.843239 -136.099434 
L 85.475363 -137.194515 
L 85.081699 -137.515009 
L 84.339575 -138.119619 
L 84.115362 -138.302376 
L 81.366191 -140.546882 
L 78.757698 -142.682354 
L 78.205146 -143.135389 
L 77.250703 -143.918496 
L 75.014676 -145.807293 
L 74.12448 -146.566321 
L 72.448833 -147.996495 
L 72.446933 -147.998115 
L 71.533797 -148.774941 
L 71.183268 -149.076044 
L 70.314137 -149.825317 
L 67.68856 -152.07421 
L 67.673533 -152.087279 
L 67.205083 -152.494693 
L 66.82583 -152.824622 
L 62.484932 -156.574733 
L 60.063494 -158.577296 
z
" id="m4a4fc687b9" style="stroke:#ffa500;stroke-opacity:0.2;"/>
    </defs>
    <g clip-path="url(#p2ff5e32bca)">
     <use style="fill:#ffa500;fill-opacity:0.2;stroke:#ffa500;stroke-opacity:0.2;" x="0" xlink:href="#m4a4fc687b9" y="250.056699"/>
    </g>
   </g>
   <g id="matplotlib.axis_1">
    <g id="xtick_1">
     <g id="line2d_1">
      <defs>
       <path d="M 0 0 
L 0 3.5 
" id="m9055c2641d" style="stroke:#000000;stroke-width:0.8;"/>
      </defs>
      <g>
       <use style="stroke:#000000;stroke-width:0.8;" x="59.995254" xlink:href="#m9055c2641d" y="226.178574"/>
      </g>
     </g>
     <g id="text_1">
      <!-- −3 -->
      <g transform="translate(52.62416 240.777012)scale(0.1 -0.1)">
       <defs>
        <path d="M 678 2272 
L 4684 2272 
L 4684 1741 
L 678 1741 
L 678 2272 
z
" id="DejaVuSans-2212" transform="scale(0.015625)"/>
        <path d="M 2597 2516 
Q 3050 2419 3304 2112 
Q 3559 1806 3559 1356 
Q 3559 666 3084 287 
Q 2609 -91 1734 -91 
Q 1441 -91 1130 -33 
Q 819 25 488 141 
L 488 750 
Q 750 597 1062 519 
Q 1375 441 1716 441 
Q 2309 441 2620 675 
Q 2931 909 2931 1356 
Q 2931 1769 2642 2001 
Q 2353 2234 1838 2234 
L 1294 2234 
L 1294 2753 
L 1863 2753 
Q 2328 2753 2575 2939 
Q 2822 3125 2822 3475 
Q 2822 3834 2567 4026 
Q 2313 4219 1838 4219 
Q 1578 4219 1281 4162 
Q 984 4106 628 3988 
L 628 4550 
Q 988 4650 1302 4700 
Q 1616 4750 1894 4750 
Q 2613 4750 3031 4423 
Q 3450 4097 3450 3541 
Q 3450 3153 3228 2886 
Q 3006 2619 2597 2516 
z
" id="DejaVuSans-33" transform="scale(0.015625)"/>
       </defs>
       <use xlink:href="#DejaVuSans-2212"/>
       <use x="83.789062" xlink:href="#DejaVuSans-33"/>
      </g>
     </g>
    </g>
    <g id="xtick_2">
     <g id="line2d_2">
      <g>
       <use style="stroke:#000000;stroke-width:0.8;" x="110.743491" xlink:href="#m9055c2641d" y="226.178574"/>
      </g>
     </g>
     <g id="text_2">
      <!-- −2 -->
      <g transform="translate(103.372397 240.777012)scale(0.1 -0.1)">
       <defs>
        <path d="M 1228 531 
L 3431 531 
L 3431 0 
L 469 0 
L 469 531 
Q 828 903 1448 1529 
Q 2069 2156 2228 2338 
Q 2531 2678 2651 2914 
Q 2772 3150 2772 3378 
Q 2772 3750 2511 3984 
Q 2250 4219 1831 4219 
Q 1534 4219 1204 4116 
Q 875 4013 500 3803 
L 500 4441 
Q 881 4594 1212 4672 
Q 1544 4750 1819 4750 
Q 2544 4750 2975 4387 
Q 3406 4025 3406 3419 
Q 3406 3131 3298 2873 
Q 3191 2616 2906 2266 
Q 2828 2175 2409 1742 
Q 1991 1309 1228 531 
z
" id="DejaVuSans-32" transform="scale(0.015625)"/>
       </defs>
       <use xlink:href="#DejaVuSans-2212"/>
       <use x="83.789062" xlink:href="#DejaVuSans-32"/>
      </g>
     </g>
    </g>
    <g id="xtick_3">
     <g id="line2d_3">
      <g>
       <use style="stroke:#000000;stroke-width:0.8;" x="161.491728" xlink:href="#m9055c2641d" y="226.178574"/>
      </g>
     </g>
     <g id="text_3">
      <!-- −1 -->
      <g transform="translate(154.120634 240.777012)scale(0.1 -0.1)">
       <defs>
        <path d="M 794 531 
L 1825 531 
L 1825 4091 
L 703 3866 
L 703 4441 
L 1819 4666 
L 2450 4666 
L 2450 531 
L 3481 531 
L 3481 0 
L 794 0 
L 794 531 
z
" id="DejaVuSans-31" transform="scale(0.015625)"/>
       </defs>
       <use xlink:href="#DejaVuSans-2212"/>
       <use x="83.789062" xlink:href="#DejaVuSans-31"/>
      </g>
     </g>
    </g>
    <g id="xtick_4">
     <g id="line2d_4">
      <g>
       <use style="stroke:#000000;stroke-width:0.8;" x="212.239965" xlink:href="#m9055c2641d" y="226.178574"/>
      </g>
     </g>
     <g id="text_4">
      <!-- 0 -->
      <g transform="translate(209.058715 240.777012)scale(0.1 -0.1)">
       <defs>
        <path d="M 2034 4250 
Q 1547 4250 1301 3770 
Q 1056 3291 1056 2328 
Q 1056 1369 1301 889 
Q 1547 409 2034 409 
Q 2525 409 2770 889 
Q 3016 1369 3016 2328 
Q 3016 3291 2770 3770 
Q 2525 4250 2034 4250 
z
M 2034 4750 
Q 2819 4750 3233 4129 
Q 3647 3509 3647 2328 
Q 3647 1150 3233 529 
Q 2819 -91 2034 -91 
Q 1250 -91 836 529 
Q 422 1150 422 2328 
Q 422 3509 836 4129 
Q 1250 4750 2034 4750 
z
" id="DejaVuSans-30" transform="scale(0.015625)"/>
       </defs>
       <use xlink:href="#DejaVuSans-30"/>
      </g>
     </g>
    </g>
    <g id="xtick_5">
     <g id="line2d_5">
      <g>
       <use style="stroke:#000000;stroke-width:0.8;" x="262.988201" xlink:href="#m9055c2641d" y="226.178574"/>
      </g>
     </g>
     <g id="text_5">
      <!-- 1 -->
      <g transform="translate(259.806951 240.777012)scale(0.1 -0.1)">
       <use xlink:href="#DejaVuSans-31"/>
      </g>
     </g>
    </g>
    <g id="xtick_6">
     <g id="line2d_6">
      <g>
       <use style="stroke:#000000;stroke-width:0.8;" x="313.736438" xlink:href="#m9055c2641d" y="226.178574"/>
      </g>
     </g>
     <g id="text_6">
      <!-- 2 -->
      <g transform="translate(310.555188 240.777012)scale(0.1 -0.1)">
       <use xlink:href="#DejaVuSans-32"/>
      </g>
     </g>
    </g>
    <g id="xtick_7">
     <g id="line2d_7">
      <g>
       <use style="stroke:#000000;stroke-width:0.8;" x="364.484675" xlink:href="#m9055c2641d" y="226.178574"/>
      </g>
     </g>
     <g id="text_7">
      <!-- 3 -->
      <g transform="translate(361.303425 240.777012)scale(0.1 -0.1)">
       <use xlink:href="#DejaVuSans-33"/>
      </g>
     </g>
    </g>
   </g>
   <g id="matplotlib.axis_2">
    <g id="ytick_1">
     <g id="line2d_8">
      <defs>
       <path d="M 0 0 
L -3.5 0 
" id="mc5dac0608e" style="stroke:#000000;stroke-width:0.8;"/>
      </defs>
      <g>
       <use style="stroke:#000000;stroke-width:0.8;" x="44.845313" xlink:href="#mc5dac0608e" y="203.086159"/>
      </g>
     </g>
     <g id="text_8">
      <!-- −0.50 -->
      <g transform="translate(7.2 206.885378)scale(0.1 -0.1)">
       <defs>
        <path d="M 684 794 
L 1344 794 
L 1344 0 
L 684 0 
L 684 794 
z
" id="DejaVuSans-2e" transform="scale(0.015625)"/>
        <path d="M 691 4666 
L 3169 4666 
L 3169 4134 
L 1269 4134 
L 1269 2991 
Q 1406 3038 1543 3061 
Q 1681 3084 1819 3084 
Q 2600 3084 3056 2656 
Q 3513 2228 3513 1497 
Q 3513 744 3044 326 
Q 2575 -91 1722 -91 
Q 1428 -91 1123 -41 
Q 819 9 494 109 
L 494 744 
Q 775 591 1075 516 
Q 1375 441 1709 441 
Q 2250 441 2565 725 
Q 2881 1009 2881 1497 
Q 2881 1984 2565 2268 
Q 2250 2553 1709 2553 
Q 1456 2553 1204 2497 
Q 953 2441 691 2322 
L 691 4666 
z
" id="DejaVuSans-35" transform="scale(0.015625)"/>
       </defs>
       <use xlink:href="#DejaVuSans-2212"/>
       <use x="83.789062" xlink:href="#DejaVuSans-30"/>
       <use x="147.412109" xlink:href="#DejaVuSans-2e"/>
       <use x="179.199219" xlink:href="#DejaVuSans-35"/>
       <use x="242.822266" xlink:href="#DejaVuSans-30"/>
      </g>
     </g>
    </g>
    <g id="ytick_2">
     <g id="line2d_9">
      <g>
       <use style="stroke:#000000;stroke-width:0.8;" x="44.845313" xlink:href="#mc5dac0608e" y="175.645168"/>
      </g>
     </g>
     <g id="text_9">
      <!-- −0.25 -->
      <g transform="translate(7.2 179.444387)scale(0.1 -0.1)">
       <use xlink:href="#DejaVuSans-2212"/>
       <use x="83.789062" xlink:href="#DejaVuSans-30"/>
       <use x="147.412109" xlink:href="#DejaVuSans-2e"/>
       <use x="179.199219" xlink:href="#DejaVuSans-32"/>
       <use x="242.822266" xlink:href="#DejaVuSans-35"/>
      </g>
     </g>
    </g>
    <g id="ytick_3">
     <g id="line2d_10">
      <g>
       <use style="stroke:#000000;stroke-width:0.8;" x="44.845313" xlink:href="#mc5dac0608e" y="148.204176"/>
      </g>
     </g>
     <g id="text_10">
      <!-- 0.00 -->
      <g transform="translate(15.579688 152.003395)scale(0.1 -0.1)">
       <use xlink:href="#DejaVuSans-30"/>
       <use x="63.623047" xlink:href="#DejaVuSans-2e"/>
       <use x="95.410156" xlink:href="#DejaVuSans-30"/>
       <use x="159.033203" xlink:href="#DejaVuSans-30"/>
      </g>
     </g>
    </g>
    <g id="ytick_4">
     <g id="line2d_11">
      <g>
       <use style="stroke:#000000;stroke-width:0.8;" x="44.845313" xlink:href="#mc5dac0608e" y="120.763185"/>
      </g>
     </g>
     <g id="text_11">
      <!-- 0.25 -->
      <g transform="translate(15.579688 124.562404)scale(0.1 -0.1)">
       <use xlink:href="#DejaVuSans-30"/>
       <use x="63.623047" xlink:href="#DejaVuSans-2e"/>
       <use x="95.410156" xlink:href="#DejaVuSans-32"/>
       <use x="159.033203" xlink:href="#DejaVuSans-35"/>
      </g>
     </g>
    </g>
    <g id="ytick_5">
     <g id="line2d_12">
      <g>
       <use style="stroke:#000000;stroke-width:0.8;" x="44.845313" xlink:href="#mc5dac0608e" y="93.322193"/>
      </g>
     </g>
     <g id="text_12">
      <!-- 0.50 -->
      <g transform="translate(15.579688 97.121412)scale(0.1 -0.1)">
       <use xlink:href="#DejaVuSans-30"/>
       <use x="63.623047" xlink:href="#DejaVuSans-2e"/>
       <use x="95.410156" xlink:href="#DejaVuSans-35"/>
       <use x="159.033203" xlink:href="#DejaVuSans-30"/>
      </g>
     </g>
    </g>
    <g id="ytick_6">
     <g id="line2d_13">
      <g>
       <use style="stroke:#000000;stroke-width:0.8;" x="44.845313" xlink:href="#mc5dac0608e" y="65.881202"/>
      </g>
     </g>
     <g id="text_13">
      <!-- 0.75 -->
      <g transform="translate(15.579688 69.680421)scale(0.1 -0.1)">
       <defs>
        <path d="M 525 4666 
L 3525 4666 
L 3525 4397 
L 1831 0 
L 1172 0 
L 2766 4134 
L 525 4134 
L 525 4666 
z
" id="DejaVuSans-37" transform="scale(0.015625)"/>
       </defs>
       <use xlink:href="#DejaVuSans-30"/>
       <use x="63.623047" xlink:href="#DejaVuSans-2e"/>
       <use x="95.410156" xlink:href="#DejaVuSans-37"/>
       <use x="159.033203" xlink:href="#DejaVuSans-35"/>
      </g>
     </g>
    </g>
    <g id="ytick_7">
     <g id="line2d_14">
      <g>
       <use style="stroke:#000000;stroke-width:0.8;" x="44.845313" xlink:href="#mc5dac0608e" y="38.44021"/>
      </g>
     </g>
     <g id="text_14">
      <!-- 1.00 -->
      <g transform="translate(15.579688 42.239429)scale(0.1 -0.1)">
       <use xlink:href="#DejaVuSans-31"/>
       <use x="63.623047" xlink:href="#DejaVuSans-2e"/>
       <use x="95.410156" xlink:href="#DejaVuSans-30"/>
       <use x="159.033203" xlink:href="#DejaVuSans-30"/>
      </g>
     </g>
    </g>
    <g id="ytick_8">
     <g id="line2d_15">
      <g>
       <use style="stroke:#000000;stroke-width:0.8;" x="44.845313" xlink:href="#mc5dac0608e" y="10.999219"/>
      </g>
     </g>
     <g id="text_15">
      <!-- 1.25 -->
      <g transform="translate(15.579688 14.798437)scale(0.1 -0.1)">
       <use xlink:href="#DejaVuSans-31"/>
       <use x="63.623047" xlink:href="#DejaVuSans-2e"/>
       <use x="95.410156" xlink:href="#DejaVuSans-32"/>
       <use x="159.033203" xlink:href="#DejaVuSans-35"/>
      </g>
     </g>
    </g>
   </g>
   <g id="line2d_16">
    <defs>
     <path d="M 0 3 
C 0.795609 3 1.55874 2.683901 2.12132 2.12132 
C 2.683901 1.55874 3 0.795609 3 0 
C 3 -0.795609 2.683901 -1.55874 2.12132 -2.12132 
C 1.55874 -2.683901 0.795609 -3 0 -3 
C -0.795609 -3 -1.55874 -2.683901 -2.12132 -2.12132 
C -2.683901 -1.55874 -3 -0.795609 -3 0 
C -3 0.795609 -2.683901 1.55874 -2.12132 2.12132 
C -1.55874 2.683901 -0.795609 3 0 3 
z
" id="m1209632fac" style="stroke:#1f77b4;stroke-opacity:0.7;"/>
    </defs>
    <g clip-path="url(#p2ff5e32bca)">
     <use style="fill:#1f77b4;fill-opacity:0.7;stroke:#1f77b4;stroke-opacity:0.7;" x="60.063494" xlink:href="#m1209632fac" y="171.027676"/>
     <use style="fill:#1f77b4;fill-opacity:0.7;stroke:#1f77b4;stroke-opacity:0.7;" x="62.484932" xlink:href="#m1209632fac" y="172.084239"/>
     <use style="fill:#1f77b4;fill-opacity:0.7;stroke:#1f77b4;stroke-opacity:0.7;" x="66.82583" xlink:href="#m1209632fac" y="181.792479"/>
     <use style="fill:#1f77b4;fill-opacity:0.7;stroke:#1f77b4;stroke-opacity:0.7;" x="67.205083" xlink:href="#m1209632fac" y="182.096428"/>
     <use style="fill:#1f77b4;fill-opacity:0.7;stroke:#1f77b4;stroke-opacity:0.7;" x="67.673533" xlink:href="#m1209632fac" y="170.206342"/>
     <use style="fill:#1f77b4;fill-opacity:0.7;stroke:#1f77b4;stroke-opacity:0.7;" x="67.68856" xlink:href="#m1209632fac" y="159.806579"/>
     <use style="fill:#1f77b4;fill-opacity:0.7;stroke:#1f77b4;stroke-opacity:0.7;" x="70.314137" xlink:href="#m1209632fac" y="194.93969"/>
     <use style="fill:#1f77b4;fill-opacity:0.7;stroke:#1f77b4;stroke-opacity:0.7;" x="71.183268" xlink:href="#m1209632fac" y="204.364893"/>
     <use style="fill:#1f77b4;fill-opacity:0.7;stroke:#1f77b4;stroke-opacity:0.7;" x="71.533797" xlink:href="#m1209632fac" y="183.779687"/>
     <use style="fill:#1f77b4;fill-opacity:0.7;stroke:#1f77b4;stroke-opacity:0.7;" x="72.446933" xlink:href="#m1209632fac" y="209.378536"/>
     <use style="fill:#1f77b4;fill-opacity:0.7;stroke:#1f77b4;stroke-opacity:0.7;" x="72.448833" xlink:href="#m1209632fac" y="199.322273"/>
     <use style="fill:#1f77b4;fill-opacity:0.7;stroke:#1f77b4;stroke-opacity:0.7;" x="74.12448" xlink:href="#m1209632fac" y="195.991591"/>
     <use style="fill:#1f77b4;fill-opacity:0.7;stroke:#1f77b4;stroke-opacity:0.7;" x="75.014676" xlink:href="#m1209632fac" y="190.04719"/>
     <use style="fill:#1f77b4;fill-opacity:0.7;stroke:#1f77b4;stroke-opacity:0.7;" x="77.250703" xlink:href="#m1209632fac" y="178.442778"/>
     <use style="fill:#1f77b4;fill-opacity:0.7;stroke:#1f77b4;stroke-opacity:0.7;" x="78.205146" xlink:href="#m1209632fac" y="195.542514"/>
     <use style="fill:#1f77b4;fill-opacity:0.7;stroke:#1f77b4;stroke-opacity:0.7;" x="78.757698" xlink:href="#m1209632fac" y="170.397414"/>
     <use style="fill:#1f77b4;fill-opacity:0.7;stroke:#1f77b4;stroke-opacity:0.7;" x="81.366191" xlink:href="#m1209632fac" y="173.101231"/>
     <use style="fill:#1f77b4;fill-opacity:0.7;stroke:#1f77b4;stroke-opacity:0.7;" x="84.115362" xlink:href="#m1209632fac" y="190.289882"/>
     <use style="fill:#1f77b4;fill-opacity:0.7;stroke:#1f77b4;stroke-opacity:0.7;" x="84.339575" xlink:href="#m1209632fac" y="190.760718"/>
     <use style="fill:#1f77b4;fill-opacity:0.7;stroke:#1f77b4;stroke-opacity:0.7;" x="85.081699" xlink:href="#m1209632fac" y="192.791345"/>
     <use style="fill:#1f77b4;fill-opacity:0.7;stroke:#1f77b4;stroke-opacity:0.7;" x="85.475363" xlink:href="#m1209632fac" y="179.498643"/>
     <use style="fill:#1f77b4;fill-opacity:0.7;stroke:#1f77b4;stroke-opacity:0.7;" x="86.843239" xlink:href="#m1209632fac" y="178.504886"/>
     <use style="fill:#1f77b4;fill-opacity:0.7;stroke:#1f77b4;stroke-opacity:0.7;" x="87.262408" xlink:href="#m1209632fac" y="166.891295"/>
     <use style="fill:#1f77b4;fill-opacity:0.7;stroke:#1f77b4;stroke-opacity:0.7;" x="87.453505" xlink:href="#m1209632fac" y="177.820765"/>
     <use style="fill:#1f77b4;fill-opacity:0.7;stroke:#1f77b4;stroke-opacity:0.7;" x="87.561746" xlink:href="#m1209632fac" y="179.56025"/>
     <use style="fill:#1f77b4;fill-opacity:0.7;stroke:#1f77b4;stroke-opacity:0.7;" x="87.697391" xlink:href="#m1209632fac" y="169.071593"/>
     <use style="fill:#1f77b4;fill-opacity:0.7;stroke:#1f77b4;stroke-opacity:0.7;" x="91.555611" xlink:href="#m1209632fac" y="170.365134"/>
     <use style="fill:#1f77b4;fill-opacity:0.7;stroke:#1f77b4;stroke-opacity:0.7;" x="92.253911" xlink:href="#m1209632fac" y="195.702284"/>
     <use style="fill:#1f77b4;fill-opacity:0.7;stroke:#1f77b4;stroke-opacity:0.7;" x="92.510211" xlink:href="#m1209632fac" y="159.600996"/>
     <use style="fill:#1f77b4;fill-opacity:0.7;stroke:#1f77b4;stroke-opacity:0.7;" x="93.406686" xlink:href="#m1209632fac" y="172.919282"/>
     <use style="fill:#1f77b4;fill-opacity:0.7;stroke:#1f77b4;stroke-opacity:0.7;" x="94.639656" xlink:href="#m1209632fac" y="175.847493"/>
     <use style="fill:#1f77b4;fill-opacity:0.7;stroke:#1f77b4;stroke-opacity:0.7;" x="95.018292" xlink:href="#m1209632fac" y="159.515443"/>
     <use style="fill:#1f77b4;fill-opacity:0.7;stroke:#1f77b4;stroke-opacity:0.7;" x="95.744953" xlink:href="#m1209632fac" y="177.873733"/>
     <use style="fill:#1f77b4;fill-opacity:0.7;stroke:#1f77b4;stroke-opacity:0.7;" x="95.914235" xlink:href="#m1209632fac" y="165.620969"/>
     <use style="fill:#1f77b4;fill-opacity:0.7;stroke:#1f77b4;stroke-opacity:0.7;" x="96.099282" xlink:href="#m1209632fac" y="178.879261"/>
     <use style="fill:#1f77b4;fill-opacity:0.7;stroke:#1f77b4;stroke-opacity:0.7;" x="98.595275" xlink:href="#m1209632fac" y="156.482795"/>
     <use style="fill:#1f77b4;fill-opacity:0.7;stroke:#1f77b4;stroke-opacity:0.7;" x="99.867918" xlink:href="#m1209632fac" y="152.384723"/>
     <use style="fill:#1f77b4;fill-opacity:0.7;stroke:#1f77b4;stroke-opacity:0.7;" x="100.283748" xlink:href="#m1209632fac" y="142.675562"/>
     <use style="fill:#1f77b4;fill-opacity:0.7;stroke:#1f77b4;stroke-opacity:0.7;" x="101.102001" xlink:href="#m1209632fac" y="166.232694"/>
     <use style="fill:#1f77b4;fill-opacity:0.7;stroke:#1f77b4;stroke-opacity:0.7;" x="101.958294" xlink:href="#m1209632fac" y="157.709256"/>
     <use style="fill:#1f77b4;fill-opacity:0.7;stroke:#1f77b4;stroke-opacity:0.7;" x="102.189209" xlink:href="#m1209632fac" y="158.603127"/>
     <use style="fill:#1f77b4;fill-opacity:0.7;stroke:#1f77b4;stroke-opacity:0.7;" x="103.712345" xlink:href="#m1209632fac" y="165.404635"/>
     <use style="fill:#1f77b4;fill-opacity:0.7;stroke:#1f77b4;stroke-opacity:0.7;" x="105.132938" xlink:href="#m1209632fac" y="162.572325"/>
     <use style="fill:#1f77b4;fill-opacity:0.7;stroke:#1f77b4;stroke-opacity:0.7;" x="107.307961" xlink:href="#m1209632fac" y="146.854651"/>
     <use style="fill:#1f77b4;fill-opacity:0.7;stroke:#1f77b4;stroke-opacity:0.7;" x="110.74066" xlink:href="#m1209632fac" y="153.166893"/>
     <use style="fill:#1f77b4;fill-opacity:0.7;stroke:#1f77b4;stroke-opacity:0.7;" x="111.776465" xlink:href="#m1209632fac" y="167.320486"/>
     <use style="fill:#1f77b4;fill-opacity:0.7;stroke:#1f77b4;stroke-opacity:0.7;" x="113.508041" xlink:href="#m1209632fac" y="170.605062"/>
     <use style="fill:#1f77b4;fill-opacity:0.7;stroke:#1f77b4;stroke-opacity:0.7;" x="113.830331" xlink:href="#m1209632fac" y="155.646331"/>
     <use style="fill:#1f77b4;fill-opacity:0.7;stroke:#1f77b4;stroke-opacity:0.7;" x="114.645401" xlink:href="#m1209632fac" y="145.968374"/>
     <use style="fill:#1f77b4;fill-opacity:0.7;stroke:#1f77b4;stroke-opacity:0.7;" x="114.862209" xlink:href="#m1209632fac" y="135.056915"/>
     <use style="fill:#1f77b4;fill-opacity:0.7;stroke:#1f77b4;stroke-opacity:0.7;" x="116.236414" xlink:href="#m1209632fac" y="151.846258"/>
     <use style="fill:#1f77b4;fill-opacity:0.7;stroke:#1f77b4;stroke-opacity:0.7;" x="119.252594" xlink:href="#m1209632fac" y="140.876032"/>
     <use style="fill:#1f77b4;fill-opacity:0.7;stroke:#1f77b4;stroke-opacity:0.7;" x="120.107247" xlink:href="#m1209632fac" y="162.113739"/>
     <use style="fill:#1f77b4;fill-opacity:0.7;stroke:#1f77b4;stroke-opacity:0.7;" x="120.383021" xlink:href="#m1209632fac" y="147.869301"/>
     <use style="fill:#1f77b4;fill-opacity:0.7;stroke:#1f77b4;stroke-opacity:0.7;" x="120.630319" xlink:href="#m1209632fac" y="150.283739"/>
     <use style="fill:#1f77b4;fill-opacity:0.7;stroke:#1f77b4;stroke-opacity:0.7;" x="120.902717" xlink:href="#m1209632fac" y="157.253567"/>
     <use style="fill:#1f77b4;fill-opacity:0.7;stroke:#1f77b4;stroke-opacity:0.7;" x="120.938798" xlink:href="#m1209632fac" y="162.25896"/>
     <use style="fill:#1f77b4;fill-opacity:0.7;stroke:#1f77b4;stroke-opacity:0.7;" x="121.205606" xlink:href="#m1209632fac" y="153.071111"/>
     <use style="fill:#1f77b4;fill-opacity:0.7;stroke:#1f77b4;stroke-opacity:0.7;" x="121.576099" xlink:href="#m1209632fac" y="159.34599"/>
     <use style="fill:#1f77b4;fill-opacity:0.7;stroke:#1f77b4;stroke-opacity:0.7;" x="121.706971" xlink:href="#m1209632fac" y="140.185189"/>
     <use style="fill:#1f77b4;fill-opacity:0.7;stroke:#1f77b4;stroke-opacity:0.7;" x="122.847127" xlink:href="#m1209632fac" y="176.118455"/>
     <use style="fill:#1f77b4;fill-opacity:0.7;stroke:#1f77b4;stroke-opacity:0.7;" x="124.257666" xlink:href="#m1209632fac" y="141.306291"/>
     <use style="fill:#1f77b4;fill-opacity:0.7;stroke:#1f77b4;stroke-opacity:0.7;" x="127.166839" xlink:href="#m1209632fac" y="154.885766"/>
     <use style="fill:#1f77b4;fill-opacity:0.7;stroke:#1f77b4;stroke-opacity:0.7;" x="132.526252" xlink:href="#m1209632fac" y="170.872023"/>
     <use style="fill:#1f77b4;fill-opacity:0.7;stroke:#1f77b4;stroke-opacity:0.7;" x="134.456487" xlink:href="#m1209632fac" y="144.324786"/>
     <use style="fill:#1f77b4;fill-opacity:0.7;stroke:#1f77b4;stroke-opacity:0.7;" x="134.617451" xlink:href="#m1209632fac" y="167.439002"/>
     <use style="fill:#1f77b4;fill-opacity:0.7;stroke:#1f77b4;stroke-opacity:0.7;" x="136.219135" xlink:href="#m1209632fac" y="166.48087"/>
     <use style="fill:#1f77b4;fill-opacity:0.7;stroke:#1f77b4;stroke-opacity:0.7;" x="138.146448" xlink:href="#m1209632fac" y="165.245419"/>
     <use style="fill:#1f77b4;fill-opacity:0.7;stroke:#1f77b4;stroke-opacity:0.7;" x="140.438156" xlink:href="#m1209632fac" y="172.665941"/>
     <use style="fill:#1f77b4;fill-opacity:0.7;stroke:#1f77b4;stroke-opacity:0.7;" x="140.743041" xlink:href="#m1209632fac" y="171.145095"/>
     <use style="fill:#1f77b4;fill-opacity:0.7;stroke:#1f77b4;stroke-opacity:0.7;" x="141.577132" xlink:href="#m1209632fac" y="160.583764"/>
     <use style="fill:#1f77b4;fill-opacity:0.7;stroke:#1f77b4;stroke-opacity:0.7;" x="141.840619" xlink:href="#m1209632fac" y="166.002931"/>
     <use style="fill:#1f77b4;fill-opacity:0.7;stroke:#1f77b4;stroke-opacity:0.7;" x="146.251802" xlink:href="#m1209632fac" y="163.052905"/>
     <use style="fill:#1f77b4;fill-opacity:0.7;stroke:#1f77b4;stroke-opacity:0.7;" x="148.690826" xlink:href="#m1209632fac" y="168.544961"/>
     <use style="fill:#1f77b4;fill-opacity:0.7;stroke:#1f77b4;stroke-opacity:0.7;" x="148.746398" xlink:href="#m1209632fac" y="184.189666"/>
     <use style="fill:#1f77b4;fill-opacity:0.7;stroke:#1f77b4;stroke-opacity:0.7;" x="149.276639" xlink:href="#m1209632fac" y="179.801673"/>
     <use style="fill:#1f77b4;fill-opacity:0.7;stroke:#1f77b4;stroke-opacity:0.7;" x="149.639002" xlink:href="#m1209632fac" y="174.503433"/>
     <use style="fill:#1f77b4;fill-opacity:0.7;stroke:#1f77b4;stroke-opacity:0.7;" x="149.802633" xlink:href="#m1209632fac" y="187.902669"/>
     <use style="fill:#1f77b4;fill-opacity:0.7;stroke:#1f77b4;stroke-opacity:0.7;" x="152.349462" xlink:href="#m1209632fac" y="173.9099"/>
     <use style="fill:#1f77b4;fill-opacity:0.7;stroke:#1f77b4;stroke-opacity:0.7;" x="153.374335" xlink:href="#m1209632fac" y="194.086085"/>
     <use style="fill:#1f77b4;fill-opacity:0.7;stroke:#1f77b4;stroke-opacity:0.7;" x="153.60038" xlink:href="#m1209632fac" y="194.948473"/>
     <use style="fill:#1f77b4;fill-opacity:0.7;stroke:#1f77b4;stroke-opacity:0.7;" x="154.100094" xlink:href="#m1209632fac" y="193.693797"/>
     <use style="fill:#1f77b4;fill-opacity:0.7;stroke:#1f77b4;stroke-opacity:0.7;" x="154.961046" xlink:href="#m1209632fac" y="216.294938"/>
     <use style="fill:#1f77b4;fill-opacity:0.7;stroke:#1f77b4;stroke-opacity:0.7;" x="155.013587" xlink:href="#m1209632fac" y="185.306095"/>
     <use style="fill:#1f77b4;fill-opacity:0.7;stroke:#1f77b4;stroke-opacity:0.7;" x="156.661533" xlink:href="#m1209632fac" y="187.45618"/>
     <use style="fill:#1f77b4;fill-opacity:0.7;stroke:#1f77b4;stroke-opacity:0.7;" x="157.087617" xlink:href="#m1209632fac" y="178.332011"/>
     <use style="fill:#1f77b4;fill-opacity:0.7;stroke:#1f77b4;stroke-opacity:0.7;" x="157.237019" xlink:href="#m1209632fac" y="189.273399"/>
     <use style="fill:#1f77b4;fill-opacity:0.7;stroke:#1f77b4;stroke-opacity:0.7;" x="158.862932" xlink:href="#m1209632fac" y="181.815741"/>
     <use style="fill:#1f77b4;fill-opacity:0.7;stroke:#1f77b4;stroke-opacity:0.7;" x="159.658674" xlink:href="#m1209632fac" y="199.207479"/>
     <use style="fill:#1f77b4;fill-opacity:0.7;stroke:#1f77b4;stroke-opacity:0.7;" x="159.985919" xlink:href="#m1209632fac" y="214.25346"/>
     <use style="fill:#1f77b4;fill-opacity:0.7;stroke:#1f77b4;stroke-opacity:0.7;" x="162.076936" xlink:href="#m1209632fac" y="162.825467"/>
     <use style="fill:#1f77b4;fill-opacity:0.7;stroke:#1f77b4;stroke-opacity:0.7;" x="166.779011" xlink:href="#m1209632fac" y="165.412602"/>
     <use style="fill:#1f77b4;fill-opacity:0.7;stroke:#1f77b4;stroke-opacity:0.7;" x="167.225494" xlink:href="#m1209632fac" y="180.035742"/>
     <use style="fill:#1f77b4;fill-opacity:0.7;stroke:#1f77b4;stroke-opacity:0.7;" x="167.36339" xlink:href="#m1209632fac" y="184.151982"/>
     <use style="fill:#1f77b4;fill-opacity:0.7;stroke:#1f77b4;stroke-opacity:0.7;" x="168.283888" xlink:href="#m1209632fac" y="152.926027"/>
     <use style="fill:#1f77b4;fill-opacity:0.7;stroke:#1f77b4;stroke-opacity:0.7;" x="168.9005" xlink:href="#m1209632fac" y="193.66727"/>
     <use style="fill:#1f77b4;fill-opacity:0.7;stroke:#1f77b4;stroke-opacity:0.7;" x="168.925164" xlink:href="#m1209632fac" y="179.829367"/>
     <use style="fill:#1f77b4;fill-opacity:0.7;stroke:#1f77b4;stroke-opacity:0.7;" x="168.933894" xlink:href="#m1209632fac" y="159.85173"/>
     <use style="fill:#1f77b4;fill-opacity:0.7;stroke:#1f77b4;stroke-opacity:0.7;" x="169.034185" xlink:href="#m1209632fac" y="177.4306"/>
     <use style="fill:#1f77b4;fill-opacity:0.7;stroke:#1f77b4;stroke-opacity:0.7;" x="170.599553" xlink:href="#m1209632fac" y="163.063844"/>
     <use style="fill:#1f77b4;fill-opacity:0.7;stroke:#1f77b4;stroke-opacity:0.7;" x="171.865209" xlink:href="#m1209632fac" y="150.583842"/>
     <use style="fill:#1f77b4;fill-opacity:0.7;stroke:#1f77b4;stroke-opacity:0.7;" x="171.988822" xlink:href="#m1209632fac" y="163.132361"/>
     <use style="fill:#1f77b4;fill-opacity:0.7;stroke:#1f77b4;stroke-opacity:0.7;" x="172.903113" xlink:href="#m1209632fac" y="164.049481"/>
     <use style="fill:#1f77b4;fill-opacity:0.7;stroke:#1f77b4;stroke-opacity:0.7;" x="173.674935" xlink:href="#m1209632fac" y="175.141596"/>
     <use style="fill:#1f77b4;fill-opacity:0.7;stroke:#1f77b4;stroke-opacity:0.7;" x="174.867341" xlink:href="#m1209632fac" y="152.751618"/>
     <use style="fill:#1f77b4;fill-opacity:0.7;stroke:#1f77b4;stroke-opacity:0.7;" x="177.375476" xlink:href="#m1209632fac" y="154.367802"/>
     <use style="fill:#1f77b4;fill-opacity:0.7;stroke:#1f77b4;stroke-opacity:0.7;" x="177.651777" xlink:href="#m1209632fac" y="119.714271"/>
     <use style="fill:#1f77b4;fill-opacity:0.7;stroke:#1f77b4;stroke-opacity:0.7;" x="178.953095" xlink:href="#m1209632fac" y="136.171214"/>
     <use style="fill:#1f77b4;fill-opacity:0.7;stroke:#1f77b4;stroke-opacity:0.7;" x="179.922233" xlink:href="#m1209632fac" y="147.390746"/>
     <use style="fill:#1f77b4;fill-opacity:0.7;stroke:#1f77b4;stroke-opacity:0.7;" x="180.399188" xlink:href="#m1209632fac" y="146.468975"/>
     <use style="fill:#1f77b4;fill-opacity:0.7;stroke:#1f77b4;stroke-opacity:0.7;" x="180.652638" xlink:href="#m1209632fac" y="126.043035"/>
     <use style="fill:#1f77b4;fill-opacity:0.7;stroke:#1f77b4;stroke-opacity:0.7;" x="182.596159" xlink:href="#m1209632fac" y="116.537559"/>
     <use style="fill:#1f77b4;fill-opacity:0.7;stroke:#1f77b4;stroke-opacity:0.7;" x="182.990554" xlink:href="#m1209632fac" y="102.754112"/>
     <use style="fill:#1f77b4;fill-opacity:0.7;stroke:#1f77b4;stroke-opacity:0.7;" x="184.31033" xlink:href="#m1209632fac" y="103.123629"/>
     <use style="fill:#1f77b4;fill-opacity:0.7;stroke:#1f77b4;stroke-opacity:0.7;" x="184.587247" xlink:href="#m1209632fac" y="118.731792"/>
     <use style="fill:#1f77b4;fill-opacity:0.7;stroke:#1f77b4;stroke-opacity:0.7;" x="184.934528" xlink:href="#m1209632fac" y="105.647631"/>
     <use style="fill:#1f77b4;fill-opacity:0.7;stroke:#1f77b4;stroke-opacity:0.7;" x="188.712475" xlink:href="#m1209632fac" y="77.215211"/>
     <use style="fill:#1f77b4;fill-opacity:0.7;stroke:#1f77b4;stroke-opacity:0.7;" x="190.543798" xlink:href="#m1209632fac" y="84.418813"/>
     <use style="fill:#1f77b4;fill-opacity:0.7;stroke:#1f77b4;stroke-opacity:0.7;" x="190.8946" xlink:href="#m1209632fac" y="62.91058"/>
     <use style="fill:#1f77b4;fill-opacity:0.7;stroke:#1f77b4;stroke-opacity:0.7;" x="192.846196" xlink:href="#m1209632fac" y="90.770104"/>
     <use style="fill:#1f77b4;fill-opacity:0.7;stroke:#1f77b4;stroke-opacity:0.7;" x="194.097932" xlink:href="#m1209632fac" y="90.969832"/>
     <use style="fill:#1f77b4;fill-opacity:0.7;stroke:#1f77b4;stroke-opacity:0.7;" x="195.166617" xlink:href="#m1209632fac" y="64.914013"/>
     <use style="fill:#1f77b4;fill-opacity:0.7;stroke:#1f77b4;stroke-opacity:0.7;" x="195.542337" xlink:href="#m1209632fac" y="66.053556"/>
     <use style="fill:#1f77b4;fill-opacity:0.7;stroke:#1f77b4;stroke-opacity:0.7;" x="195.631176" xlink:href="#m1209632fac" y="69.332621"/>
     <use style="fill:#1f77b4;fill-opacity:0.7;stroke:#1f77b4;stroke-opacity:0.7;" x="197.007904" xlink:href="#m1209632fac" y="56.875831"/>
     <use style="fill:#1f77b4;fill-opacity:0.7;stroke:#1f77b4;stroke-opacity:0.7;" x="198.194811" xlink:href="#m1209632fac" y="59.113183"/>
     <use style="fill:#1f77b4;fill-opacity:0.7;stroke:#1f77b4;stroke-opacity:0.7;" x="199.604606" xlink:href="#m1209632fac" y="59.652182"/>
     <use style="fill:#1f77b4;fill-opacity:0.7;stroke:#1f77b4;stroke-opacity:0.7;" x="200.148549" xlink:href="#m1209632fac" y="55.220286"/>
     <use style="fill:#1f77b4;fill-opacity:0.7;stroke:#1f77b4;stroke-opacity:0.7;" x="201.141861" xlink:href="#m1209632fac" y="63.853987"/>
     <use style="fill:#1f77b4;fill-opacity:0.7;stroke:#1f77b4;stroke-opacity:0.7;" x="201.632809" xlink:href="#m1209632fac" y="58.405958"/>
     <use style="fill:#1f77b4;fill-opacity:0.7;stroke:#1f77b4;stroke-opacity:0.7;" x="203.947966" xlink:href="#m1209632fac" y="69.105723"/>
     <use style="fill:#1f77b4;fill-opacity:0.7;stroke:#1f77b4;stroke-opacity:0.7;" x="204.16913" xlink:href="#m1209632fac" y="55.216439"/>
     <use style="fill:#1f77b4;fill-opacity:0.7;stroke:#1f77b4;stroke-opacity:0.7;" x="206.302833" xlink:href="#m1209632fac" y="18.622211"/>
     <use style="fill:#1f77b4;fill-opacity:0.7;stroke:#1f77b4;stroke-opacity:0.7;" x="208.203649" xlink:href="#m1209632fac" y="34.763292"/>
     <use style="fill:#1f77b4;fill-opacity:0.7;stroke:#1f77b4;stroke-opacity:0.7;" x="209.301608" xlink:href="#m1209632fac" y="51.040084"/>
     <use style="fill:#1f77b4;fill-opacity:0.7;stroke:#1f77b4;stroke-opacity:0.7;" x="211.846694" xlink:href="#m1209632fac" y="53.310566"/>
     <use style="fill:#1f77b4;fill-opacity:0.7;stroke:#1f77b4;stroke-opacity:0.7;" x="212.387352" xlink:href="#m1209632fac" y="35.85431"/>
     <use style="fill:#1f77b4;fill-opacity:0.7;stroke:#1f77b4;stroke-opacity:0.7;" x="212.87458" xlink:href="#m1209632fac" y="43.534489"/>
     <use style="fill:#1f77b4;fill-opacity:0.7;stroke:#1f77b4;stroke-opacity:0.7;" x="213.969291" xlink:href="#m1209632fac" y="22.665401"/>
     <use style="fill:#1f77b4;fill-opacity:0.7;stroke:#1f77b4;stroke-opacity:0.7;" x="214.484413" xlink:href="#m1209632fac" y="39.555396"/>
     <use style="fill:#1f77b4;fill-opacity:0.7;stroke:#1f77b4;stroke-opacity:0.7;" x="214.832946" xlink:href="#m1209632fac" y="18.957903"/>
     <use style="fill:#1f77b4;fill-opacity:0.7;stroke:#1f77b4;stroke-opacity:0.7;" x="216.443033" xlink:href="#m1209632fac" y="44.124448"/>
     <use style="fill:#1f77b4;fill-opacity:0.7;stroke:#1f77b4;stroke-opacity:0.7;" x="216.944889" xlink:href="#m1209632fac" y="47.606087"/>
     <use style="fill:#1f77b4;fill-opacity:0.7;stroke:#1f77b4;stroke-opacity:0.7;" x="220.204828" xlink:href="#m1209632fac" y="41.128618"/>
     <use style="fill:#1f77b4;fill-opacity:0.7;stroke:#1f77b4;stroke-opacity:0.7;" x="220.697173" xlink:href="#m1209632fac" y="25.716403"/>
     <use style="fill:#1f77b4;fill-opacity:0.7;stroke:#1f77b4;stroke-opacity:0.7;" x="221.050389" xlink:href="#m1209632fac" y="27.823384"/>
     <use style="fill:#1f77b4;fill-opacity:0.7;stroke:#1f77b4;stroke-opacity:0.7;" x="223.405619" xlink:href="#m1209632fac" y="49.45591"/>
     <use style="fill:#1f77b4;fill-opacity:0.7;stroke:#1f77b4;stroke-opacity:0.7;" x="224.321435" xlink:href="#m1209632fac" y="55.656582"/>
     <use style="fill:#1f77b4;fill-opacity:0.7;stroke:#1f77b4;stroke-opacity:0.7;" x="224.404285" xlink:href="#m1209632fac" y="50.401384"/>
     <use style="fill:#1f77b4;fill-opacity:0.7;stroke:#1f77b4;stroke-opacity:0.7;" x="224.65837" xlink:href="#m1209632fac" y="40.656764"/>
     <use style="fill:#1f77b4;fill-opacity:0.7;stroke:#1f77b4;stroke-opacity:0.7;" x="225.167576" xlink:href="#m1209632fac" y="64.100493"/>
     <use style="fill:#1f77b4;fill-opacity:0.7;stroke:#1f77b4;stroke-opacity:0.7;" x="229.141496" xlink:href="#m1209632fac" y="58.496983"/>
     <use style="fill:#1f77b4;fill-opacity:0.7;stroke:#1f77b4;stroke-opacity:0.7;" x="229.890759" xlink:href="#m1209632fac" y="62.675922"/>
     <use style="fill:#1f77b4;fill-opacity:0.7;stroke:#1f77b4;stroke-opacity:0.7;" x="230.128583" xlink:href="#m1209632fac" y="61.346386"/>
     <use style="fill:#1f77b4;fill-opacity:0.7;stroke:#1f77b4;stroke-opacity:0.7;" x="230.725558" xlink:href="#m1209632fac" y="86.292634"/>
     <use style="fill:#1f77b4;fill-opacity:0.7;stroke:#1f77b4;stroke-opacity:0.7;" x="231.119536" xlink:href="#m1209632fac" y="63.009174"/>
     <use style="fill:#1f77b4;fill-opacity:0.7;stroke:#1f77b4;stroke-opacity:0.7;" x="231.476454" xlink:href="#m1209632fac" y="76.055615"/>
     <use style="fill:#1f77b4;fill-opacity:0.7;stroke:#1f77b4;stroke-opacity:0.7;" x="233.05723" xlink:href="#m1209632fac" y="76.022229"/>
     <use style="fill:#1f77b4;fill-opacity:0.7;stroke:#1f77b4;stroke-opacity:0.7;" x="233.122766" xlink:href="#m1209632fac" y="88.429781"/>
     <use style="fill:#1f77b4;fill-opacity:0.7;stroke:#1f77b4;stroke-opacity:0.7;" x="234.917247" xlink:href="#m1209632fac" y="91.714192"/>
     <use style="fill:#1f77b4;fill-opacity:0.7;stroke:#1f77b4;stroke-opacity:0.7;" x="235.546563" xlink:href="#m1209632fac" y="71.309263"/>
     <use style="fill:#1f77b4;fill-opacity:0.7;stroke:#1f77b4;stroke-opacity:0.7;" x="235.712445" xlink:href="#m1209632fac" y="79.639703"/>
     <use style="fill:#1f77b4;fill-opacity:0.7;stroke:#1f77b4;stroke-opacity:0.7;" x="236.455464" xlink:href="#m1209632fac" y="97.178858"/>
     <use style="fill:#1f77b4;fill-opacity:0.7;stroke:#1f77b4;stroke-opacity:0.7;" x="236.723143" xlink:href="#m1209632fac" y="108.831151"/>
     <use style="fill:#1f77b4;fill-opacity:0.7;stroke:#1f77b4;stroke-opacity:0.7;" x="240.545755" xlink:href="#m1209632fac" y="98.080675"/>
     <use style="fill:#1f77b4;fill-opacity:0.7;stroke:#1f77b4;stroke-opacity:0.7;" x="240.637262" xlink:href="#m1209632fac" y="109.314032"/>
     <use style="fill:#1f77b4;fill-opacity:0.7;stroke:#1f77b4;stroke-opacity:0.7;" x="240.851783" xlink:href="#m1209632fac" y="108.845783"/>
     <use style="fill:#1f77b4;fill-opacity:0.7;stroke:#1f77b4;stroke-opacity:0.7;" x="240.928354" xlink:href="#m1209632fac" y="128.612535"/>
     <use style="fill:#1f77b4;fill-opacity:0.7;stroke:#1f77b4;stroke-opacity:0.7;" x="241.36618" xlink:href="#m1209632fac" y="106.144055"/>
     <use style="fill:#1f77b4;fill-opacity:0.7;stroke:#1f77b4;stroke-opacity:0.7;" x="241.614549" xlink:href="#m1209632fac" y="101.416607"/>
     <use style="fill:#1f77b4;fill-opacity:0.7;stroke:#1f77b4;stroke-opacity:0.7;" x="242.066767" xlink:href="#m1209632fac" y="114.162319"/>
     <use style="fill:#1f77b4;fill-opacity:0.7;stroke:#1f77b4;stroke-opacity:0.7;" x="242.337513" xlink:href="#m1209632fac" y="123.500619"/>
     <use style="fill:#1f77b4;fill-opacity:0.7;stroke:#1f77b4;stroke-opacity:0.7;" x="242.583704" xlink:href="#m1209632fac" y="107.950963"/>
     <use style="fill:#1f77b4;fill-opacity:0.7;stroke:#1f77b4;stroke-opacity:0.7;" x="243.181713" xlink:href="#m1209632fac" y="120.254916"/>
     <use style="fill:#1f77b4;fill-opacity:0.7;stroke:#1f77b4;stroke-opacity:0.7;" x="243.683043" xlink:href="#m1209632fac" y="120.341619"/>
     <use style="fill:#1f77b4;fill-opacity:0.7;stroke:#1f77b4;stroke-opacity:0.7;" x="243.99653" xlink:href="#m1209632fac" y="115.287105"/>
     <use style="fill:#1f77b4;fill-opacity:0.7;stroke:#1f77b4;stroke-opacity:0.7;" x="244.603559" xlink:href="#m1209632fac" y="126.150287"/>
     <use style="fill:#1f77b4;fill-opacity:0.7;stroke:#1f77b4;stroke-opacity:0.7;" x="245.21008" xlink:href="#m1209632fac" y="127.767589"/>
     <use style="fill:#1f77b4;fill-opacity:0.7;stroke:#1f77b4;stroke-opacity:0.7;" x="245.531444" xlink:href="#m1209632fac" y="111.822535"/>
     <use style="fill:#1f77b4;fill-opacity:0.7;stroke:#1f77b4;stroke-opacity:0.7;" x="245.559357" xlink:href="#m1209632fac" y="126.509101"/>
     <use style="fill:#1f77b4;fill-opacity:0.7;stroke:#1f77b4;stroke-opacity:0.7;" x="245.810485" xlink:href="#m1209632fac" y="124.240642"/>
     <use style="fill:#1f77b4;fill-opacity:0.7;stroke:#1f77b4;stroke-opacity:0.7;" x="246.095188" xlink:href="#m1209632fac" y="125.420498"/>
     <use style="fill:#1f77b4;fill-opacity:0.7;stroke:#1f77b4;stroke-opacity:0.7;" x="246.899859" xlink:href="#m1209632fac" y="133.186481"/>
     <use style="fill:#1f77b4;fill-opacity:0.7;stroke:#1f77b4;stroke-opacity:0.7;" x="248.060051" xlink:href="#m1209632fac" y="124.100635"/>
     <use style="fill:#1f77b4;fill-opacity:0.7;stroke:#1f77b4;stroke-opacity:0.7;" x="250.015096" xlink:href="#m1209632fac" y="137.061041"/>
     <use style="fill:#1f77b4;fill-opacity:0.7;stroke:#1f77b4;stroke-opacity:0.7;" x="250.428367" xlink:href="#m1209632fac" y="134.1348"/>
     <use style="fill:#1f77b4;fill-opacity:0.7;stroke:#1f77b4;stroke-opacity:0.7;" x="250.664866" xlink:href="#m1209632fac" y="135.698574"/>
     <use style="fill:#1f77b4;fill-opacity:0.7;stroke:#1f77b4;stroke-opacity:0.7;" x="251.199154" xlink:href="#m1209632fac" y="139.204905"/>
     <use style="fill:#1f77b4;fill-opacity:0.7;stroke:#1f77b4;stroke-opacity:0.7;" x="253.582551" xlink:href="#m1209632fac" y="152.96452"/>
     <use style="fill:#1f77b4;fill-opacity:0.7;stroke:#1f77b4;stroke-opacity:0.7;" x="253.889033" xlink:href="#m1209632fac" y="145.515226"/>
     <use style="fill:#1f77b4;fill-opacity:0.7;stroke:#1f77b4;stroke-opacity:0.7;" x="254.972418" xlink:href="#m1209632fac" y="130.303943"/>
     <use style="fill:#1f77b4;fill-opacity:0.7;stroke:#1f77b4;stroke-opacity:0.7;" x="255.854586" xlink:href="#m1209632fac" y="160.571595"/>
     <use style="fill:#1f77b4;fill-opacity:0.7;stroke:#1f77b4;stroke-opacity:0.7;" x="256.042773" xlink:href="#m1209632fac" y="148.715103"/>
     <use style="fill:#1f77b4;fill-opacity:0.7;stroke:#1f77b4;stroke-opacity:0.7;" x="257.199934" xlink:href="#m1209632fac" y="166.029148"/>
     <use style="fill:#1f77b4;fill-opacity:0.7;stroke:#1f77b4;stroke-opacity:0.7;" x="258.200633" xlink:href="#m1209632fac" y="142.913649"/>
     <use style="fill:#1f77b4;fill-opacity:0.7;stroke:#1f77b4;stroke-opacity:0.7;" x="258.693214" xlink:href="#m1209632fac" y="150.536784"/>
     <use style="fill:#1f77b4;fill-opacity:0.7;stroke:#1f77b4;stroke-opacity:0.7;" x="258.826174" xlink:href="#m1209632fac" y="151.342627"/>
     <use style="fill:#1f77b4;fill-opacity:0.7;stroke:#1f77b4;stroke-opacity:0.7;" x="259.669793" xlink:href="#m1209632fac" y="152.456422"/>
     <use style="fill:#1f77b4;fill-opacity:0.7;stroke:#1f77b4;stroke-opacity:0.7;" x="266.135895" xlink:href="#m1209632fac" y="157.3958"/>
     <use style="fill:#1f77b4;fill-opacity:0.7;stroke:#1f77b4;stroke-opacity:0.7;" x="267.972009" xlink:href="#m1209632fac" y="155.601449"/>
     <use style="fill:#1f77b4;fill-opacity:0.7;stroke:#1f77b4;stroke-opacity:0.7;" x="268.223445" xlink:href="#m1209632fac" y="138.807568"/>
     <use style="fill:#1f77b4;fill-opacity:0.7;stroke:#1f77b4;stroke-opacity:0.7;" x="268.228509" xlink:href="#m1209632fac" y="151.353058"/>
     <use style="fill:#1f77b4;fill-opacity:0.7;stroke:#1f77b4;stroke-opacity:0.7;" x="268.793414" xlink:href="#m1209632fac" y="166.101681"/>
     <use style="fill:#1f77b4;fill-opacity:0.7;stroke:#1f77b4;stroke-opacity:0.7;" x="269.194688" xlink:href="#m1209632fac" y="165.366558"/>
     <use style="fill:#1f77b4;fill-opacity:0.7;stroke:#1f77b4;stroke-opacity:0.7;" x="271.010203" xlink:href="#m1209632fac" y="160.516018"/>
     <use style="fill:#1f77b4;fill-opacity:0.7;stroke:#1f77b4;stroke-opacity:0.7;" x="271.834911" xlink:href="#m1209632fac" y="173.104064"/>
     <use style="fill:#1f77b4;fill-opacity:0.7;stroke:#1f77b4;stroke-opacity:0.7;" x="271.84297" xlink:href="#m1209632fac" y="155.7653"/>
     <use style="fill:#1f77b4;fill-opacity:0.7;stroke:#1f77b4;stroke-opacity:0.7;" x="271.92337" xlink:href="#m1209632fac" y="151.861121"/>
     <use style="fill:#1f77b4;fill-opacity:0.7;stroke:#1f77b4;stroke-opacity:0.7;" x="273.427757" xlink:href="#m1209632fac" y="143.59769"/>
     <use style="fill:#1f77b4;fill-opacity:0.7;stroke:#1f77b4;stroke-opacity:0.7;" x="273.836926" xlink:href="#m1209632fac" y="156.085962"/>
     <use style="fill:#1f77b4;fill-opacity:0.7;stroke:#1f77b4;stroke-opacity:0.7;" x="274.6451" xlink:href="#m1209632fac" y="158.766037"/>
     <use style="fill:#1f77b4;fill-opacity:0.7;stroke:#1f77b4;stroke-opacity:0.7;" x="274.672614" xlink:href="#m1209632fac" y="151.230365"/>
     <use style="fill:#1f77b4;fill-opacity:0.7;stroke:#1f77b4;stroke-opacity:0.7;" x="274.679021" xlink:href="#m1209632fac" y="172.527092"/>
     <use style="fill:#1f77b4;fill-opacity:0.7;stroke:#1f77b4;stroke-opacity:0.7;" x="279.181892" xlink:href="#m1209632fac" y="136.902639"/>
     <use style="fill:#1f77b4;fill-opacity:0.7;stroke:#1f77b4;stroke-opacity:0.7;" x="279.246267" xlink:href="#m1209632fac" y="155.880959"/>
     <use style="fill:#1f77b4;fill-opacity:0.7;stroke:#1f77b4;stroke-opacity:0.7;" x="280.946591" xlink:href="#m1209632fac" y="164.796832"/>
     <use style="fill:#1f77b4;fill-opacity:0.7;stroke:#1f77b4;stroke-opacity:0.7;" x="281.280314" xlink:href="#m1209632fac" y="154.827919"/>
     <use style="fill:#1f77b4;fill-opacity:0.7;stroke:#1f77b4;stroke-opacity:0.7;" x="282.303463" xlink:href="#m1209632fac" y="138.150998"/>
     <use style="fill:#1f77b4;fill-opacity:0.7;stroke:#1f77b4;stroke-opacity:0.7;" x="282.840328" xlink:href="#m1209632fac" y="153.024425"/>
     <use style="fill:#1f77b4;fill-opacity:0.7;stroke:#1f77b4;stroke-opacity:0.7;" x="284.06778" xlink:href="#m1209632fac" y="145.97028"/>
     <use style="fill:#1f77b4;fill-opacity:0.7;stroke:#1f77b4;stroke-opacity:0.7;" x="284.515352" xlink:href="#m1209632fac" y="130.647088"/>
     <use style="fill:#1f77b4;fill-opacity:0.7;stroke:#1f77b4;stroke-opacity:0.7;" x="284.673194" xlink:href="#m1209632fac" y="154.273636"/>
     <use style="fill:#1f77b4;fill-opacity:0.7;stroke:#1f77b4;stroke-opacity:0.7;" x="285.137935" xlink:href="#m1209632fac" y="145.026095"/>
     <use style="fill:#1f77b4;fill-opacity:0.7;stroke:#1f77b4;stroke-opacity:0.7;" x="285.620498" xlink:href="#m1209632fac" y="154.099974"/>
     <use style="fill:#1f77b4;fill-opacity:0.7;stroke:#1f77b4;stroke-opacity:0.7;" x="287.091546" xlink:href="#m1209632fac" y="135.487597"/>
     <use style="fill:#1f77b4;fill-opacity:0.7;stroke:#1f77b4;stroke-opacity:0.7;" x="291.595906" xlink:href="#m1209632fac" y="134.308018"/>
     <use style="fill:#1f77b4;fill-opacity:0.7;stroke:#1f77b4;stroke-opacity:0.7;" x="291.726524" xlink:href="#m1209632fac" y="121.344487"/>
     <use style="fill:#1f77b4;fill-opacity:0.7;stroke:#1f77b4;stroke-opacity:0.7;" x="292.230994" xlink:href="#m1209632fac" y="134.170945"/>
     <use style="fill:#1f77b4;fill-opacity:0.7;stroke:#1f77b4;stroke-opacity:0.7;" x="293.08572" xlink:href="#m1209632fac" y="152.218133"/>
     <use style="fill:#1f77b4;fill-opacity:0.7;stroke:#1f77b4;stroke-opacity:0.7;" x="293.285994" xlink:href="#m1209632fac" y="141.02315"/>
     <use style="fill:#1f77b4;fill-opacity:0.7;stroke:#1f77b4;stroke-opacity:0.7;" x="294.065438" xlink:href="#m1209632fac" y="136.2467"/>
     <use style="fill:#1f77b4;fill-opacity:0.7;stroke:#1f77b4;stroke-opacity:0.7;" x="297.493146" xlink:href="#m1209632fac" y="130.928609"/>
     <use style="fill:#1f77b4;fill-opacity:0.7;stroke:#1f77b4;stroke-opacity:0.7;" x="299.517538" xlink:href="#m1209632fac" y="112.132644"/>
     <use style="fill:#1f77b4;fill-opacity:0.7;stroke:#1f77b4;stroke-opacity:0.7;" x="299.782768" xlink:href="#m1209632fac" y="129.509061"/>
     <use style="fill:#1f77b4;fill-opacity:0.7;stroke:#1f77b4;stroke-opacity:0.7;" x="299.977325" xlink:href="#m1209632fac" y="122.822719"/>
     <use style="fill:#1f77b4;fill-opacity:0.7;stroke:#1f77b4;stroke-opacity:0.7;" x="301.262345" xlink:href="#m1209632fac" y="88.236583"/>
     <use style="fill:#1f77b4;fill-opacity:0.7;stroke:#1f77b4;stroke-opacity:0.7;" x="303.118478" xlink:href="#m1209632fac" y="117.669303"/>
     <use style="fill:#1f77b4;fill-opacity:0.7;stroke:#1f77b4;stroke-opacity:0.7;" x="305.834056" xlink:href="#m1209632fac" y="118.341516"/>
     <use style="fill:#1f77b4;fill-opacity:0.7;stroke:#1f77b4;stroke-opacity:0.7;" x="306.786025" xlink:href="#m1209632fac" y="111.44572"/>
     <use style="fill:#1f77b4;fill-opacity:0.7;stroke:#1f77b4;stroke-opacity:0.7;" x="306.848367" xlink:href="#m1209632fac" y="127.082749"/>
     <use style="fill:#1f77b4;fill-opacity:0.7;stroke:#1f77b4;stroke-opacity:0.7;" x="308.762068" xlink:href="#m1209632fac" y="83.118489"/>
     <use style="fill:#1f77b4;fill-opacity:0.7;stroke:#1f77b4;stroke-opacity:0.7;" x="308.953395" xlink:href="#m1209632fac" y="99.324472"/>
     <use style="fill:#1f77b4;fill-opacity:0.7;stroke:#1f77b4;stroke-opacity:0.7;" x="311.66135" xlink:href="#m1209632fac" y="121.321736"/>
     <use style="fill:#1f77b4;fill-opacity:0.7;stroke:#1f77b4;stroke-opacity:0.7;" x="311.676849" xlink:href="#m1209632fac" y="108.975235"/>
     <use style="fill:#1f77b4;fill-opacity:0.7;stroke:#1f77b4;stroke-opacity:0.7;" x="314.193478" xlink:href="#m1209632fac" y="122.357764"/>
     <use style="fill:#1f77b4;fill-opacity:0.7;stroke:#1f77b4;stroke-opacity:0.7;" x="314.716241" xlink:href="#m1209632fac" y="101.577028"/>
     <use style="fill:#1f77b4;fill-opacity:0.7;stroke:#1f77b4;stroke-opacity:0.7;" x="315.937257" xlink:href="#m1209632fac" y="103.620612"/>
     <use style="fill:#1f77b4;fill-opacity:0.7;stroke:#1f77b4;stroke-opacity:0.7;" x="316.167458" xlink:href="#m1209632fac" y="92.965303"/>
     <use style="fill:#1f77b4;fill-opacity:0.7;stroke:#1f77b4;stroke-opacity:0.7;" x="316.313969" xlink:href="#m1209632fac" y="95.915866"/>
     <use style="fill:#1f77b4;fill-opacity:0.7;stroke:#1f77b4;stroke-opacity:0.7;" x="316.973685" xlink:href="#m1209632fac" y="120.483731"/>
     <use style="fill:#1f77b4;fill-opacity:0.7;stroke:#1f77b4;stroke-opacity:0.7;" x="317.200511" xlink:href="#m1209632fac" y="136.444151"/>
     <use style="fill:#1f77b4;fill-opacity:0.7;stroke:#1f77b4;stroke-opacity:0.7;" x="317.811805" xlink:href="#m1209632fac" y="118.423045"/>
     <use style="fill:#1f77b4;fill-opacity:0.7;stroke:#1f77b4;stroke-opacity:0.7;" x="318.29343" xlink:href="#m1209632fac" y="108.480001"/>
     <use style="fill:#1f77b4;fill-opacity:0.7;stroke:#1f77b4;stroke-opacity:0.7;" x="318.8794" xlink:href="#m1209632fac" y="133.184675"/>
     <use style="fill:#1f77b4;fill-opacity:0.7;stroke:#1f77b4;stroke-opacity:0.7;" x="319.388225" xlink:href="#m1209632fac" y="92.975418"/>
     <use style="fill:#1f77b4;fill-opacity:0.7;stroke:#1f77b4;stroke-opacity:0.7;" x="320.544025" xlink:href="#m1209632fac" y="129.606094"/>
     <use style="fill:#1f77b4;fill-opacity:0.7;stroke:#1f77b4;stroke-opacity:0.7;" x="320.883484" xlink:href="#m1209632fac" y="128.422664"/>
     <use style="fill:#1f77b4;fill-opacity:0.7;stroke:#1f77b4;stroke-opacity:0.7;" x="323.657859" xlink:href="#m1209632fac" y="113.95441"/>
     <use style="fill:#1f77b4;fill-opacity:0.7;stroke:#1f77b4;stroke-opacity:0.7;" x="324.546215" xlink:href="#m1209632fac" y="127.617796"/>
     <use style="fill:#1f77b4;fill-opacity:0.7;stroke:#1f77b4;stroke-opacity:0.7;" x="325.66141" xlink:href="#m1209632fac" y="130.137984"/>
     <use style="fill:#1f77b4;fill-opacity:0.7;stroke:#1f77b4;stroke-opacity:0.7;" x="326.849442" xlink:href="#m1209632fac" y="115.095166"/>
     <use style="fill:#1f77b4;fill-opacity:0.7;stroke:#1f77b4;stroke-opacity:0.7;" x="328.534043" xlink:href="#m1209632fac" y="106.401196"/>
     <use style="fill:#1f77b4;fill-opacity:0.7;stroke:#1f77b4;stroke-opacity:0.7;" x="328.657299" xlink:href="#m1209632fac" y="130.920768"/>
     <use style="fill:#1f77b4;fill-opacity:0.7;stroke:#1f77b4;stroke-opacity:0.7;" x="332.067396" xlink:href="#m1209632fac" y="131.447719"/>
     <use style="fill:#1f77b4;fill-opacity:0.7;stroke:#1f77b4;stroke-opacity:0.7;" x="332.093724" xlink:href="#m1209632fac" y="121.798112"/>
     <use style="fill:#1f77b4;fill-opacity:0.7;stroke:#1f77b4;stroke-opacity:0.7;" x="334.71595" xlink:href="#m1209632fac" y="111.480496"/>
     <use style="fill:#1f77b4;fill-opacity:0.7;stroke:#1f77b4;stroke-opacity:0.7;" x="335.032141" xlink:href="#m1209632fac" y="132.139219"/>
     <use style="fill:#1f77b4;fill-opacity:0.7;stroke:#1f77b4;stroke-opacity:0.7;" x="335.504039" xlink:href="#m1209632fac" y="116.984211"/>
     <use style="fill:#1f77b4;fill-opacity:0.7;stroke:#1f77b4;stroke-opacity:0.7;" x="335.886862" xlink:href="#m1209632fac" y="132.602488"/>
     <use style="fill:#1f77b4;fill-opacity:0.7;stroke:#1f77b4;stroke-opacity:0.7;" x="336.005508" xlink:href="#m1209632fac" y="135.371351"/>
     <use style="fill:#1f77b4;fill-opacity:0.7;stroke:#1f77b4;stroke-opacity:0.7;" x="338.582445" xlink:href="#m1209632fac" y="131.684019"/>
     <use style="fill:#1f77b4;fill-opacity:0.7;stroke:#1f77b4;stroke-opacity:0.7;" x="338.843863" xlink:href="#m1209632fac" y="127.620897"/>
     <use style="fill:#1f77b4;fill-opacity:0.7;stroke:#1f77b4;stroke-opacity:0.7;" x="339.040913" xlink:href="#m1209632fac" y="118.062936"/>
     <use style="fill:#1f77b4;fill-opacity:0.7;stroke:#1f77b4;stroke-opacity:0.7;" x="341.633653" xlink:href="#m1209632fac" y="143.125669"/>
     <use style="fill:#1f77b4;fill-opacity:0.7;stroke:#1f77b4;stroke-opacity:0.7;" x="341.66741" xlink:href="#m1209632fac" y="118.667932"/>
     <use style="fill:#1f77b4;fill-opacity:0.7;stroke:#1f77b4;stroke-opacity:0.7;" x="342.70316" xlink:href="#m1209632fac" y="139.542834"/>
     <use style="fill:#1f77b4;fill-opacity:0.7;stroke:#1f77b4;stroke-opacity:0.7;" x="342.829913" xlink:href="#m1209632fac" y="123.067914"/>
     <use style="fill:#1f77b4;fill-opacity:0.7;stroke:#1f77b4;stroke-opacity:0.7;" x="343.379004" xlink:href="#m1209632fac" y="131.553398"/>
     <use style="fill:#1f77b4;fill-opacity:0.7;stroke:#1f77b4;stroke-opacity:0.7;" x="343.518146" xlink:href="#m1209632fac" y="128.251121"/>
     <use style="fill:#1f77b4;fill-opacity:0.7;stroke:#1f77b4;stroke-opacity:0.7;" x="345.34195" xlink:href="#m1209632fac" y="124.766585"/>
     <use style="fill:#1f77b4;fill-opacity:0.7;stroke:#1f77b4;stroke-opacity:0.7;" x="345.743284" xlink:href="#m1209632fac" y="148.375696"/>
     <use style="fill:#1f77b4;fill-opacity:0.7;stroke:#1f77b4;stroke-opacity:0.7;" x="345.822002" xlink:href="#m1209632fac" y="139.737026"/>
     <use style="fill:#1f77b4;fill-opacity:0.7;stroke:#1f77b4;stroke-opacity:0.7;" x="348.871733" xlink:href="#m1209632fac" y="163.296675"/>
     <use style="fill:#1f77b4;fill-opacity:0.7;stroke:#1f77b4;stroke-opacity:0.7;" x="348.991977" xlink:href="#m1209632fac" y="137.987539"/>
     <use style="fill:#1f77b4;fill-opacity:0.7;stroke:#1f77b4;stroke-opacity:0.7;" x="349.014433" xlink:href="#m1209632fac" y="126.599328"/>
     <use style="fill:#1f77b4;fill-opacity:0.7;stroke:#1f77b4;stroke-opacity:0.7;" x="349.187381" xlink:href="#m1209632fac" y="134.194835"/>
     <use style="fill:#1f77b4;fill-opacity:0.7;stroke:#1f77b4;stroke-opacity:0.7;" x="349.751814" xlink:href="#m1209632fac" y="124.090062"/>
     <use style="fill:#1f77b4;fill-opacity:0.7;stroke:#1f77b4;stroke-opacity:0.7;" x="350.694763" xlink:href="#m1209632fac" y="107.979109"/>
     <use style="fill:#1f77b4;fill-opacity:0.7;stroke:#1f77b4;stroke-opacity:0.7;" x="352.43571" xlink:href="#m1209632fac" y="131.148846"/>
     <use style="fill:#1f77b4;fill-opacity:0.7;stroke:#1f77b4;stroke-opacity:0.7;" x="352.62475" xlink:href="#m1209632fac" y="129.872193"/>
     <use style="fill:#1f77b4;fill-opacity:0.7;stroke:#1f77b4;stroke-opacity:0.7;" x="353.834392" xlink:href="#m1209632fac" y="121.375013"/>
     <use style="fill:#1f77b4;fill-opacity:0.7;stroke:#1f77b4;stroke-opacity:0.7;" x="356.444276" xlink:href="#m1209632fac" y="117.680785"/>
     <use style="fill:#1f77b4;fill-opacity:0.7;stroke:#1f77b4;stroke-opacity:0.7;" x="359.075963" xlink:href="#m1209632fac" y="137.391441"/>
     <use style="fill:#1f77b4;fill-opacity:0.7;stroke:#1f77b4;stroke-opacity:0.7;" x="359.129091" xlink:href="#m1209632fac" y="126.469419"/>
     <use style="fill:#1f77b4;fill-opacity:0.7;stroke:#1f77b4;stroke-opacity:0.7;" x="360.621313" xlink:href="#m1209632fac" y="111.082978"/>
     <use style="fill:#1f77b4;fill-opacity:0.7;stroke:#1f77b4;stroke-opacity:0.7;" x="360.673703" xlink:href="#m1209632fac" y="112.237728"/>
     <use style="fill:#1f77b4;fill-opacity:0.7;stroke:#1f77b4;stroke-opacity:0.7;" x="361.027076" xlink:href="#m1209632fac" y="131.288378"/>
     <use style="fill:#1f77b4;fill-opacity:0.7;stroke:#1f77b4;stroke-opacity:0.7;" x="361.670227" xlink:href="#m1209632fac" y="135.576182"/>
     <use style="fill:#1f77b4;fill-opacity:0.7;stroke:#1f77b4;stroke-opacity:0.7;" x="361.905511" xlink:href="#m1209632fac" y="121.149473"/>
     <use style="fill:#1f77b4;fill-opacity:0.7;stroke:#1f77b4;stroke-opacity:0.7;" x="364.427131" xlink:href="#m1209632fac" y="122.813552"/>
    </g>
   </g>
   <g id="line2d_17">
    <path clip-path="url(#p2ff5e32bca)" d="M 60.063494 134.049254 
L 62.484932 135.204179 
L 78.757698 143.467227 
L 95.744953 151.721831 
L 107.307961 157.790989 
L 121.576099 165.744693 
L 127.166839 168.872589 
L 138.146448 174.921781 
L 141.840619 176.563903 
L 146.251802 177.601512 
L 149.639002 177.964274 
L 149.802633 177.963747 
L 152.349462 177.715121 
L 154.100094 177.165936 
L 155.013587 176.751269 
L 157.237019 175.477758 
L 158.862932 174.215685 
L 159.985919 173.084427 
L 162.076936 170.506451 
L 167.36339 162.367278 
L 169.034185 159.289159 
L 171.865209 152.694236 
L 173.674935 147.82477 
L 174.867341 144.441341 
L 178.953095 131.762977 
L 190.8946 92.850935 
L 195.631176 79.075724 
L 198.194811 72.525791 
L 200.148549 68.09328 
L 204.16913 60.001169 
L 206.302833 56.197727 
L 208.203649 53.397627 
L 209.301608 52.463189 
L 212.87458 50.659608 
L 214.832946 49.974915 
L 216.443033 49.761377 
L 216.944889 49.873324 
L 220.204828 51.547117 
L 221.050389 52.295049 
L 223.405619 55.333869 
L 225.167576 58.081348 
L 229.141496 65.990519 
L 231.476454 72.283106 
L 235.546563 84.262036 
L 236.723143 88.00534 
L 246.095188 118.161854 
L 250.664866 130.876168 
L 253.582551 137.579288 
L 255.854586 142.12186 
L 257.199934 144.393509 
L 258.826174 146.60761 
L 259.669793 147.51969 
L 266.135895 151.396496 
L 268.228509 151.484032 
L 269.194688 151.175285 
L 271.92337 150.168378 
L 274.679021 148.802975 
L 279.246267 145.290641 
L 284.06778 140.654495 
L 287.091546 137.548627 
L 297.493146 127.377118 
L 317.200511 108.087442 
L 345.743284 81.853547 
L 359.129091 69.540625 
L 364.427131 64.773815 
L 364.427131 64.773815 
" style="fill:none;stroke:#ff7f0e;stroke-linecap:square;stroke-width:1.5;"/>
   </g>
   <g id="line2d_18">
    <path clip-path="url(#p2ff5e32bca)" d="M 110.743491 226.178574 
L 110.743491 8.738574 
" style="fill:none;stroke:#000000;stroke-dasharray:5.55,2.4;stroke-dashoffset:0;stroke-width:1.5;"/>
   </g>
   <g id="line2d_19">
    <path clip-path="url(#p2ff5e32bca)" d="M 313.736438 226.178574 
L 313.736438 8.738574 
" style="fill:none;stroke:#000000;stroke-dasharray:5.55,2.4;stroke-dashoffset:0;stroke-width:1.5;"/>
   </g>
   <g id="patch_3">
    <path d="M 44.845313 226.178574 
L 44.845313 8.738574 
" style="fill:none;stroke:#000000;stroke-linecap:square;stroke-linejoin:miter;stroke-width:0.8;"/>
   </g>
   <g id="patch_4">
    <path d="M 379.645313 226.178574 
L 379.645313 8.738574 
" style="fill:none;stroke:#000000;stroke-linecap:square;stroke-linejoin:miter;stroke-width:0.8;"/>
   </g>
   <g id="patch_5">
    <path d="M 44.845313 226.178574 
L 379.645313 226.178574 
" style="fill:none;stroke:#000000;stroke-linecap:square;stroke-linejoin:miter;stroke-width:0.8;"/>
   </g>
   <g id="patch_6">
    <path d="M 44.845313 8.738574 
L 379.645313 8.738574 
" style="fill:none;stroke:#000000;stroke-linecap:square;stroke-linejoin:miter;stroke-width:0.8;"/>
   </g>
   <g id="legend_1">
    <g id="patch_7">
     <path d="M 173.548438 221.178574 
L 250.942188 221.178574 
Q 252.942188 221.178574 252.942188 219.178574 
L 252.942188 190.822324 
Q 252.942188 188.822324 250.942188 188.822324 
L 173.548438 188.822324 
Q 171.548438 188.822324 171.548438 190.822324 
L 171.548438 219.178574 
Q 171.548438 221.178574 173.548438 221.178574 
z
" style="fill:#ffffff;opacity:0.8;stroke:#cccccc;stroke-linejoin:miter;"/>
    </g>
    <g id="line2d_20"/>
    <g id="line2d_21">
     <g>
      <use style="fill:#1f77b4;fill-opacity:0.7;stroke:#1f77b4;stroke-opacity:0.7;" x="185.548438" xlink:href="#m1209632fac" y="196.920762"/>
     </g>
    </g>
    <g id="text_16">
     <!-- Test data -->
     <g transform="translate(203.548438 200.420762)scale(0.1 -0.1)">
      <defs>
       <path d="M -19 4666 
L 3928 4666 
L 3928 4134 
L 2272 4134 
L 2272 0 
L 1638 0 
L 1638 4134 
L -19 4134 
L -19 4666 
z
" id="DejaVuSans-54" transform="scale(0.015625)"/>
       <path d="M 3597 1894 
L 3597 1613 
L 953 1613 
Q 991 1019 1311 708 
Q 1631 397 2203 397 
Q 2534 397 2845 478 
Q 3156 559 3463 722 
L 3463 178 
Q 3153 47 2828 -22 
Q 2503 -91 2169 -91 
Q 1331 -91 842 396 
Q 353 884 353 1716 
Q 353 2575 817 3079 
Q 1281 3584 2069 3584 
Q 2775 3584 3186 3129 
Q 3597 2675 3597 1894 
z
M 3022 2063 
Q 3016 2534 2758 2815 
Q 2500 3097 2075 3097 
Q 1594 3097 1305 2825 
Q 1016 2553 972 2059 
L 3022 2063 
z
" id="DejaVuSans-65" transform="scale(0.015625)"/>
       <path d="M 2834 3397 
L 2834 2853 
Q 2591 2978 2328 3040 
Q 2066 3103 1784 3103 
Q 1356 3103 1142 2972 
Q 928 2841 928 2578 
Q 928 2378 1081 2264 
Q 1234 2150 1697 2047 
L 1894 2003 
Q 2506 1872 2764 1633 
Q 3022 1394 3022 966 
Q 3022 478 2636 193 
Q 2250 -91 1575 -91 
Q 1294 -91 989 -36 
Q 684 19 347 128 
L 347 722 
Q 666 556 975 473 
Q 1284 391 1588 391 
Q 1994 391 2212 530 
Q 2431 669 2431 922 
Q 2431 1156 2273 1281 
Q 2116 1406 1581 1522 
L 1381 1569 
Q 847 1681 609 1914 
Q 372 2147 372 2553 
Q 372 3047 722 3315 
Q 1072 3584 1716 3584 
Q 2034 3584 2315 3537 
Q 2597 3491 2834 3397 
z
" id="DejaVuSans-73" transform="scale(0.015625)"/>
       <path d="M 1172 4494 
L 1172 3500 
L 2356 3500 
L 2356 3053 
L 1172 3053 
L 1172 1153 
Q 1172 725 1289 603 
Q 1406 481 1766 481 
L 2356 481 
L 2356 0 
L 1766 0 
Q 1100 0 847 248 
Q 594 497 594 1153 
L 594 3053 
L 172 3053 
L 172 3500 
L 594 3500 
L 594 4494 
L 1172 4494 
z
" id="DejaVuSans-74" transform="scale(0.015625)"/>
       <path id="DejaVuSans-20" transform="scale(0.015625)"/>
       <path d="M 2906 2969 
L 2906 4863 
L 3481 4863 
L 3481 0 
L 2906 0 
L 2906 525 
Q 2725 213 2448 61 
Q 2172 -91 1784 -91 
Q 1150 -91 751 415 
Q 353 922 353 1747 
Q 353 2572 751 3078 
Q 1150 3584 1784 3584 
Q 2172 3584 2448 3432 
Q 2725 3281 2906 2969 
z
M 947 1747 
Q 947 1113 1208 752 
Q 1469 391 1925 391 
Q 2381 391 2643 752 
Q 2906 1113 2906 1747 
Q 2906 2381 2643 2742 
Q 2381 3103 1925 3103 
Q 1469 3103 1208 2742 
Q 947 2381 947 1747 
z
" id="DejaVuSans-64" transform="scale(0.015625)"/>
       <path d="M 2194 1759 
Q 1497 1759 1228 1600 
Q 959 1441 959 1056 
Q 959 750 1161 570 
Q 1363 391 1709 391 
Q 2188 391 2477 730 
Q 2766 1069 2766 1631 
L 2766 1759 
L 2194 1759 
z
M 3341 1997 
L 3341 0 
L 2766 0 
L 2766 531 
Q 2569 213 2275 61 
Q 1981 -91 1556 -91 
Q 1019 -91 701 211 
Q 384 513 384 1019 
Q 384 1609 779 1909 
Q 1175 2209 1959 2209 
L 2766 2209 
L 2766 2266 
Q 2766 2663 2505 2880 
Q 2244 3097 1772 3097 
Q 1472 3097 1187 3025 
Q 903 2953 641 2809 
L 641 3341 
Q 956 3463 1253 3523 
Q 1550 3584 1831 3584 
Q 2591 3584 2966 3190 
Q 3341 2797 3341 1997 
z
" id="DejaVuSans-61" transform="scale(0.015625)"/>
      </defs>
      <use xlink:href="#DejaVuSans-54"/>
      <use x="44.083984" xlink:href="#DejaVuSans-65"/>
      <use x="105.607422" xlink:href="#DejaVuSans-73"/>
      <use x="157.707031" xlink:href="#DejaVuSans-74"/>
      <use x="196.916016" xlink:href="#DejaVuSans-20"/>
      <use x="228.703125" xlink:href="#DejaVuSans-64"/>
      <use x="292.179688" xlink:href="#DejaVuSans-61"/>
      <use x="353.458984" xlink:href="#DejaVuSans-74"/>
      <use x="392.667969" xlink:href="#DejaVuSans-61"/>
     </g>
    </g>
    <g id="line2d_22">
     <path d="M 175.548438 211.598887 
L 195.548438 211.598887 
" style="fill:none;stroke:#ff7f0e;stroke-linecap:square;stroke-width:1.5;"/>
    </g>
    <g id="line2d_23"/>
    <g id="text_17">
     <!-- predictor -->
     <g transform="translate(203.548438 215.098887)scale(0.1 -0.1)">
      <defs>
       <path d="M 1159 525 
L 1159 -1331 
L 581 -1331 
L 581 3500 
L 1159 3500 
L 1159 2969 
Q 1341 3281 1617 3432 
Q 1894 3584 2278 3584 
Q 2916 3584 3314 3078 
Q 3713 2572 3713 1747 
Q 3713 922 3314 415 
Q 2916 -91 2278 -91 
Q 1894 -91 1617 61 
Q 1341 213 1159 525 
z
M 3116 1747 
Q 3116 2381 2855 2742 
Q 2594 3103 2138 3103 
Q 1681 3103 1420 2742 
Q 1159 2381 1159 1747 
Q 1159 1113 1420 752 
Q 1681 391 2138 391 
Q 2594 391 2855 752 
Q 3116 1113 3116 1747 
z
" id="DejaVuSans-70" transform="scale(0.015625)"/>
       <path d="M 2631 2963 
Q 2534 3019 2420 3045 
Q 2306 3072 2169 3072 
Q 1681 3072 1420 2755 
Q 1159 2438 1159 1844 
L 1159 0 
L 581 0 
L 581 3500 
L 1159 3500 
L 1159 2956 
Q 1341 3275 1631 3429 
Q 1922 3584 2338 3584 
Q 2397 3584 2469 3576 
Q 2541 3569 2628 3553 
L 2631 2963 
z
" id="DejaVuSans-72" transform="scale(0.015625)"/>
       <path d="M 603 3500 
L 1178 3500 
L 1178 0 
L 603 0 
L 603 3500 
z
M 603 4863 
L 1178 4863 
L 1178 4134 
L 603 4134 
L 603 4863 
z
" id="DejaVuSans-69" transform="scale(0.015625)"/>
       <path d="M 3122 3366 
L 3122 2828 
Q 2878 2963 2633 3030 
Q 2388 3097 2138 3097 
Q 1578 3097 1268 2742 
Q 959 2388 959 1747 
Q 959 1106 1268 751 
Q 1578 397 2138 397 
Q 2388 397 2633 464 
Q 2878 531 3122 666 
L 3122 134 
Q 2881 22 2623 -34 
Q 2366 -91 2075 -91 
Q 1284 -91 818 406 
Q 353 903 353 1747 
Q 353 2603 823 3093 
Q 1294 3584 2113 3584 
Q 2378 3584 2631 3529 
Q 2884 3475 3122 3366 
z
" id="DejaVuSans-63" transform="scale(0.015625)"/>
       <path d="M 1959 3097 
Q 1497 3097 1228 2736 
Q 959 2375 959 1747 
Q 959 1119 1226 758 
Q 1494 397 1959 397 
Q 2419 397 2687 759 
Q 2956 1122 2956 1747 
Q 2956 2369 2687 2733 
Q 2419 3097 1959 3097 
z
M 1959 3584 
Q 2709 3584 3137 3096 
Q 3566 2609 3566 1747 
Q 3566 888 3137 398 
Q 2709 -91 1959 -91 
Q 1206 -91 779 398 
Q 353 888 353 1747 
Q 353 2609 779 3096 
Q 1206 3584 1959 3584 
z
" id="DejaVuSans-6f" transform="scale(0.015625)"/>
      </defs>
      <use xlink:href="#DejaVuSans-70"/>
      <use x="63.476562" xlink:href="#DejaVuSans-72"/>
      <use x="102.339844" xlink:href="#DejaVuSans-65"/>
      <use x="163.863281" xlink:href="#DejaVuSans-64"/>
      <use x="227.339844" xlink:href="#DejaVuSans-69"/>
      <use x="255.123047" xlink:href="#DejaVuSans-63"/>
      <use x="310.103516" xlink:href="#DejaVuSans-74"/>
      <use x="349.3125" xlink:href="#DejaVuSans-6f"/>
      <use x="410.494141" xlink:href="#DejaVuSans-72"/>
     </g>
    </g>
   </g>
  </g>
 </g>
 <defs>
  <clipPath id="p2ff5e32bca">
   <rect height="217.44" width="334.8" x="44.845313" y="8.738574"/>
  </clipPath>
 </defs>
</svg>
